<?xml version="1.0" standalone="no"?>
<!DOCTYPE svg PUBLIC "-//W3C//DTD SVG 20010904//EN"
 "http://www.w3.org/TR/2001/REC-SVG-20010904/DTD/svg10.dtd">
<svg version="1.0" xmlns="http://www.w3.org/2000/svg"
 width="600.000000pt" height="600.000000pt" viewBox="0 0 600.000000 600.000000"
 preserveAspectRatio="xMidYMid meet">
<g transform="translate(0.000000,600.000000) scale(0.100000,-0.100000)"
fill="#000000" stroke="none">
<path d="M1538 4783 c7 -3 16 -2 19 1 4 3 -2 6 -13 5 -11 0 -14 -3 -6 -6z"/>
<path d="M1413 4773 c-21 -7 -15 -74 12 -132 14 -30 24 -56 21 -58 -8 -8 -47
72 -57 118 -6 27 -14 49 -19 49 -9 0 -6 -55 5 -83 6 -13 3 -16 -9 -11 -9 3
-14 9 -12 13 2 3 -9 7 -25 8 -16 1 -29 -2 -29 -7 0 -6 9 -10 20 -10 11 0 20
-4 20 -10 0 -5 7 -10 15 -10 17 0 85 -57 85 -72 0 -5 -19 7 -42 26 -23 20 -46
36 -52 37 -6 0 -21 2 -34 3 -31 4 -36 -8 -17 -44 17 -34 19 -34 46 -20 15 8
19 8 17 -2 -2 -9 9 -13 34 -13 47 -1 64 -15 49 -43 -27 -51 -9 -90 98 -204
100 -107 261 -223 261 -188 0 5 -20 40 -44 78 -24 37 -74 128 -111 202 -36 74
-70 139 -75 144 -5 5 -26 12 -47 15 -33 5 -38 10 -41 35 -2 18 4 36 18 51 21
22 21 22 1 28 -11 3 -22 0 -25 -7 -3 -8 -5 -8 -5 0 -1 6 7 18 16 25 14 11 15
11 9 1 -6 -10 -3 -13 10 -10 14 2 19 12 19 33 0 38 -26 44 -54 14 -16 -18 -19
-30 -15 -68 12 -92 11 -119 -3 -114 -9 4 -10 10 -2 24 7 13 6 25 -2 40 -6 11
-11 49 -10 82 0 66 -6 87 -26 80z m-49 -171 c2 -4 -4 -8 -14 -8 -10 0 -16 4
-14 8 3 4 9 8 14 8 5 0 11 -4 14 -8z m176 -73 c0 -5 -4 -7 -10 -4 -13 8 -50
-13 -50 -28 0 -8 3 -7 9 2 5 8 18 15 28 16 10 0 24 4 31 9 16 9 16 -6 0 -23
-11 -10 -10 -11 3 -6 22 8 36 -14 18 -27 -10 -7 -7 -7 9 -3 12 3 22 2 22 -3 0
-5 -10 -17 -22 -26 -20 -15 -21 -16 -3 -11 37 12 40 10 38 -20 -2 -24 -1 -26
6 -10 7 16 9 14 16 -15 4 -19 7 -41 6 -47 -1 -7 3 -13 8 -13 6 0 19 -20 30
-45 11 -25 25 -45 32 -45 6 0 9 -6 6 -13 -3 -7 4 -19 14 -25 10 -7 19 -17 19
-24 0 -6 -7 -4 -18 5 -10 10 -22 17 -27 17 -4 0 -16 10 -26 22 -11 11 -19 18
-19 15 0 -3 -17 12 -37 35 -21 22 -48 51 -60 63 -13 12 -23 27 -23 33 0 6 -9
16 -20 22 -11 6 -18 15 -15 19 2 5 -3 8 -12 7 -10 0 -18 7 -20 19 -3 19 -3 19
5 1 5 -12 11 -15 15 -9 4 6 0 16 -8 23 -8 7 -15 22 -15 34 0 17 -2 18 -11 6
-8 -11 -9 -9 -4 10 4 14 14 31 23 38 19 15 62 16 62 1z"/>
<path d="M1506 4454 c-5 -14 -4 -15 9 -4 17 14 19 20 6 20 -5 0 -12 -7 -15
-16z"/>
<path d="M1255 4741 c-3 -6 -1 -19 4 -30 12 -22 73 -32 89 -14 15 15 4 46 -13
39 -7 -2 -18 1 -25 7 -10 9 -14 9 -17 -1 -4 -9 -8 -10 -18 -2 -9 7 -15 8 -20
1z"/>
<path d="M1206 4647 c3 -10 9 -15 12 -12 3 3 0 11 -7 18 -10 9 -11 8 -5 -6z"/>
<path d="M2881 4643 c-1 -7 -10 -13 -20 -13 -15 0 -19 -7 -17 -32 1 -31 1 -32
-99 -65 -90 -30 -109 -33 -193 -30 -62 2 -86 0 -70 -6 13 -5 66 -7 118 -4 73
4 113 12 173 35 72 28 77 29 77 11 0 -10 5 -19 11 -19 5 0 8 4 4 9 -3 5 2 17
11 25 8 9 11 16 6 16 -5 0 -12 9 -15 20 -4 17 0 20 34 20 21 0 39 5 39 10 0 6
-11 10 -24 10 -13 0 -27 6 -29 13 -4 10 -6 10 -6 0z"/>
<path d="M1939 4619 c-6 -12 -9 -39 -6 -60 4 -33 2 -38 -20 -44 -14 -3 -35
-16 -48 -29 -13 -13 -35 -26 -49 -30 -36 -9 -61 -52 -60 -101 2 -64 113 -269
171 -315 18 -14 39 -20 63 -19 19 2 47 -1 63 -5 34 -10 84 9 92 35 4 11 11 17
16 14 15 -10 48 14 66 48 13 25 17 58 17 157 -1 145 -12 194 -55 238 -31 32
-31 32 -125 29 l-94 -2 0 26 c0 15 7 32 15 39 12 10 13 16 4 26 -17 20 -37 17
-50 -7z m56 -115 c8 -3 15 -1 15 5 0 6 10 11 21 11 21 0 21 -1 -3 -19 -13 -11
-39 -23 -58 -28 -18 -5 -35 -14 -37 -20 -2 -5 25 -1 61 11 35 12 62 24 60 28
-8 13 31 26 66 21 48 -7 68 -28 86 -89 17 -60 21 -252 5 -282 -6 -11 -7 -22
-4 -26 3 -3 -1 -6 -10 -6 -8 0 -17 -4 -19 -10 -1 -5 -4 29 -4 74 -1 46 -7 92
-14 103 -10 15 -10 14 -5 -12 4 -20 3 -27 -3 -20 -6 6 -12 26 -15 45 -10 77
-38 139 -72 162 -6 5 -6 8 0 8 27 0 75 -67 75 -103 0 -14 5 -29 10 -32 7 -4 9
3 5 22 -4 23 -4 24 4 8 5 -11 10 -33 11 -50 1 -16 4 -24 7 -16 7 17 -16 123
-25 117 -4 -2 -12 7 -19 20 -6 13 -8 24 -4 24 12 0 39 -33 50 -60 5 -14 10
-18 10 -10 2 34 -37 77 -77 87 -22 6 -44 7 -49 3 -4 -3 -28 -12 -51 -19 -24
-7 -42 -15 -39 -17 3 -3 22 -1 43 5 33 9 39 8 57 -12 27 -30 44 -73 53 -132 4
-27 13 -54 20 -60 12 -10 17 -45 15 -116 -1 -28 -6 -38 -22 -42 -14 -4 -18
-10 -13 -19 4 -7 4 -10 -1 -6 -4 4 -17 2 -28 -3 -15 -8 -22 -8 -28 2 -6 9 -9
10 -9 2 0 -6 -11 -10 -25 -9 -58 6 -168 204 -169 304 -1 45 3 57 24 76 14 12
33 39 43 60 12 26 22 36 32 32 8 -3 22 -9 30 -12z m-75 -25 c0 -6 -19 -28 -41
-49 -38 -34 -41 -41 -35 -72 4 -25 3 -29 -5 -18 -9 13 -10 13 -6 -1 3 -9 8
-37 12 -61 5 -32 11 -45 22 -44 9 0 18 -6 20 -14 4 -13 3 -13 -6 0 -15 21 -14
5 3 -35 8 -18 11 -37 8 -41 -4 -4 -1 -4 6 0 9 5 9 12 1 27 -6 12 -9 23 -6 25
2 3 12 -12 22 -33 10 -21 26 -49 36 -62 10 -13 16 -27 13 -32 -3 -5 3 -6 12
-2 11 4 15 2 11 -4 -4 -6 -16 -13 -28 -16 -11 -3 -18 -3 -15 0 3 4 -4 13 -15
21 -12 8 -34 41 -49 74 -16 33 -37 69 -47 81 -10 11 -12 17 -4 12 7 -4 4 5 -8
22 -14 18 -24 51 -28 84 -5 52 -4 57 22 77 15 12 31 19 36 16 5 -3 9 2 9 10 0
8 12 22 28 30 33 19 32 18 32 5z"/>
<path d="M1950 4414 c0 -15 34 -44 52 -44 18 0 51 -34 41 -43 -3 -4 1 -7 10
-7 12 0 17 -9 17 -31 0 -17 9 -43 21 -57 12 -15 19 -20 17 -12 -24 90 -35 115
-60 141 -16 16 -42 32 -56 36 -15 3 -30 11 -34 17 -6 8 -8 8 -8 0z"/>
<path d="M1891 4393 c-1 -6 -4 -20 -7 -30 -5 -17 -5 -17 6 0 6 10 9 23 6 30
-3 9 -5 9 -5 0z"/>
<path d="M1890 4324 c0 -10 5 -26 10 -34 8 -11 9 -7 4 15 -8 37 -14 45 -14 19z"/>
<path d="M2081 4194 c0 -11 3 -14 6 -6 3 7 2 16 -1 19 -3 4 -6 -2 -5 -13z"/>
<path d="M2142 4185 c0 -16 2 -22 5 -12 2 9 2 23 0 30 -3 6 -5 -1 -5 -18z"/>
<path d="M1960 4160 c0 -5 5 -10 11 -10 5 0 7 5 4 10 -3 6 -8 10 -11 10 -2 0
-4 -4 -4 -10z"/>
<path d="M1990 4121 c15 -30 30 -35 17 -6 -7 14 -16 25 -20 25 -4 0 -3 -9 3
-19z"/>
<path d="M2909 4585 c-4 -49 -3 -59 9 -63 15 -5 16 46 2 68 -8 13 -10 12 -11
-5z"/>
<path d="M1178 4538 c-3 -73 1 -110 17 -134 9 -14 11 -25 5 -29 -6 -3 -10 -1
-10 4 0 14 -59 14 -114 -1 l-44 -12 25 -38 c14 -21 30 -38 35 -38 5 0 7 -4 4
-9 -11 -18 20 -32 48 -21 32 12 34 20 4 13 -13 -3 -20 -2 -16 2 5 5 -1 15 -12
22 -11 8 -18 19 -15 24 4 5 2 9 -3 9 -6 0 -13 7 -16 16 -3 8 -2 12 3 9 5 -3
12 -1 16 5 10 16 23 12 30 -10 3 -11 11 -20 18 -20 8 0 8 3 -1 12 -17 17 -15
33 2 19 11 -9 15 -9 18 0 2 6 17 -8 33 -32 17 -23 53 -60 80 -82 l50 -40 -50
7 c-27 3 -62 15 -77 26 -22 16 -32 18 -55 9 l-28 -11 27 -14 c15 -8 55 -17 90
-20 35 -3 79 -7 98 -9 31 -3 35 -6 33 -30 -1 -15 -7 -33 -14 -41 -13 -16 -44
-19 -34 -4 3 6 2 10 -4 10 -5 0 -11 -5 -13 -11 -2 -6 -15 -12 -30 -12 -14 -1
-24 -5 -22 -9 5 -7 -36 -23 -49 -20 -5 1 -6 -2 -3 -7 7 -10 -22 -25 -42 -22
-8 1 -16 -7 -19 -17 -3 -11 -13 -22 -24 -25 -15 -4 -17 -2 -9 13 13 24 13 33
0 25 -16 -10 -11 1 7 16 14 12 16 12 9 0 -6 -9 -5 -12 5 -9 8 3 13 11 11 17
-3 15 15 14 22 -1 3 -7 4 -4 3 6 -3 25 75 65 136 69 25 1 50 6 54 11 14 15
-100 -4 -144 -24 -24 -10 -45 -15 -47 -11 -3 4 7 12 22 19 15 6 33 21 40 32
12 19 11 20 -15 14 -16 -4 -37 -14 -48 -22 -20 -14 -20 -14 3 -9 12 3 20 1 16
-4 -3 -5 -15 -9 -28 -9 -22 0 -46 -17 -46 -33 0 -4 9 -6 19 -2 11 3 22 1 26
-5 3 -6 -3 -10 -17 -10 -32 0 -43 -10 -56 -49 -19 -55 -16 -66 18 -65 16 0 38
7 47 16 10 8 30 22 46 31 15 10 27 25 27 35 0 14 2 14 9 3 8 -12 13 -12 35 2
14 9 35 17 47 17 12 0 42 11 65 25 l44 26 52 -22 c29 -13 65 -31 80 -41 14
-10 31 -18 37 -18 15 0 45 -49 36 -58 -4 -4 -10 -2 -12 5 -2 6 -16 10 -31 7
l-27 -4 24 19 24 18 -58 -9 c-70 -11 -105 -28 -138 -68 -87 -103 -12 -331 142
-429 69 -45 98 -48 159 -17 28 14 62 26 74 26 46 0 97 21 127 52 40 41 61 105
68 208 15 225 -117 341 -299 266 l-58 -24 0 33 c0 18 7 38 15 45 21 18 19 40
-5 40 -14 0 -22 -10 -30 -39 l-10 -39 -69 72 c-56 57 -70 77 -69 101 0 36 -15
77 -44 118 -20 28 -22 29 -35 11 -11 -14 -14 -15 -13 -4 5 38 -2 59 -35 96
-31 35 -34 37 -35 17 0 -13 4 -23 8 -23 5 0 14 -11 20 -25 15 -32 15 -38 2
-30 -6 4 -10 3 -9 -2 4 -21 -2 -53 -9 -53 -5 0 -17 17 -28 38 -10 20 -22 39
-25 42 -9 7 -40 82 -36 87 10 9 35 -10 30 -23 -3 -7 2 -16 10 -20 9 -3 13 -13
10 -22 -4 -15 -3 -15 6 -2 21 29 12 59 -21 80 -18 10 -38 24 -45 29 -20 18
-23 13 -25 -31z m42 -61 c0 -6 16 -39 37 -72 37 -62 103 -132 210 -224 34 -29
61 -57 60 -61 -1 -5 7 -16 18 -24 11 -9 -19 3 -67 26 -62 30 -86 47 -85 59 1
20 2 19 70 -29 26 -19 50 -32 53 -29 3 3 -17 21 -45 40 -28 18 -48 37 -44 40
3 4 -6 7 -21 7 -47 0 -122 46 -165 102 -22 29 -37 57 -33 62 7 12 5 59 -4 100
-5 21 -4 27 5 22 6 -4 11 -12 11 -19z m127 -64 c-7 -12 12 -55 21 -49 5 3 18
-8 30 -24 15 -20 18 -30 9 -33 -7 -3 -6 -6 4 -6 11 -1 18 -12 21 -35 4 -36 -1
-37 -34 -8 -10 8 -15 19 -12 23 3 5 -2 9 -11 9 -41 0 -73 88 -43 118 13 13 21
16 15 5z m402 -372 c1 11 13 16 45 18 72 3 127 -56 146 -157 5 -26 12 -59 15
-73 8 -33 -13 -141 -26 -134 -5 3 -6 -1 -3 -9 9 -22 -34 -99 -52 -92 -9 4 -12
2 -8 -5 5 -8 -19 -10 -85 -7 -50 3 -94 1 -97 -3 -3 -5 2 -6 11 -3 8 4 22 1 30
-6 11 -9 15 -9 15 -1 0 7 5 9 11 5 15 -9 -4 -21 -56 -35 -61 -17 -75 -19 -75
-9 0 5 -10 10 -22 12 -14 2 -22 10 -20 18 2 12 0 12 -11 -1 -11 -15 -14 -14
-24 8 -11 22 -10 23 5 11 15 -12 16 -11 3 4 -10 14 -17 15 -33 7 -11 -6 -18
-7 -14 -1 7 11 -28 55 -37 46 -3 -4 -4 5 -1 20 3 19 1 24 -9 20 -24 -9 -60 82
-61 150 -1 52 3 63 27 89 15 17 26 36 23 43 -4 11 10 22 37 29 4 2 9 4 12 5
11 6 30 5 35 -1 8 -10 110 -17 110 -8 0 5 7 9 15 9 8 0 15 4 15 9 0 5 9 13 20
16 11 4 18 11 15 16 -4 5 1 9 9 9 9 0 16 6 17 13 0 6 4 3 9 -8 6 -14 9 -16 9
-4z m-99 -11 c0 -5 -5 -10 -11 -10 -5 0 -7 5 -4 10 3 6 8 10 11 10 2 0 4 -4 4
-10z m-222 -100 c-7 -10 -14 -17 -17 -15 -4 4 18 35 25 35 2 0 -1 -9 -8 -20z"/>
<path d="M1228 4363 c7 -3 16 -2 19 1 4 3 -2 6 -13 5 -11 0 -14 -3 -6 -6z"/>
<path d="M1310 4270 c8 -5 22 -10 30 -10 13 0 13 1 0 10 -8 5 -22 10 -30 10
-13 0 -13 -1 0 -10z"/>
<path d="M1769 4034 c-21 -25 -21 -52 0 -59 43 -13 101 -95 101 -142 0 -12 5
-25 11 -29 16 -9 3 49 -23 108 -14 31 -32 52 -54 64 -39 21 -43 38 -13 55 30
16 66 -6 91 -55 24 -47 34 -167 16 -200 -10 -19 -10 -20 5 -7 10 7 17 21 18
30 0 12 2 12 10 -4 7 -15 7 -11 3 14 -5 25 -3 32 6 26 9 -5 11 -4 6 4 -4 6
-12 9 -17 6 -5 -4 -9 11 -9 32 0 60 -18 109 -51 143 -34 34 -78 40 -100 14z"/>
<path d="M1704 3986 c-12 -14 -40 -30 -64 -36 -23 -6 -40 -14 -37 -17 3 -3 26
1 50 10 37 12 47 13 68 1 13 -7 31 -13 40 -14 28 0 98 -98 85 -119 -6 -9 11
-37 18 -30 10 9 -25 102 -47 126 -11 12 -39 30 -62 40 -41 17 -42 18 -28 40
20 30 4 29 -23 -1z"/>
<path d="M1514 3954 c-6 -3 -8 -28 -3 -72 4 -37 5 -70 3 -74 -2 -4 0 -9 6 -13
5 -3 10 -15 10 -26 0 -10 4 -19 9 -19 4 0 2 24 -6 53 -8 28 -13 76 -11 105 2
28 3 52 3 51 0 0 -5 -3 -11 -5z"/>
<path d="M1554 3938 c-3 -4 4 -8 15 -8 12 0 21 4 21 8 0 5 -7 9 -15 9 -9 0
-18 -4 -21 -9z"/>
<path d="M1551 3735 c0 -5 6 -19 14 -29 8 -11 15 -15 15 -10 0 6 -7 19 -15 30
-8 10 -14 15 -14 9z"/>
<path d="M1591 3682 c-1 -19 66 -82 87 -81 13 0 14 2 2 6 -8 3 -23 14 -34 25
-11 10 -23 18 -26 18 -4 0 -12 10 -18 23 -6 12 -11 16 -11 9z"/>
<path d="M1485 3660 c-3 -6 3 -22 14 -36 24 -30 29 -20 6 12 -8 12 -11 24 -8
28 3 3 4 6 0 6 -3 0 -9 -5 -12 -10z"/>
<path d="M3027 4559 c-19 -11 -47 -60 -47 -84 0 -9 9 -15 22 -15 16 0 19 3 11
11 -16 16 -4 47 21 55 11 4 24 11 28 17 17 27 98 4 98 -28 0 -8 6 -18 14 -22
15 -8 20 -27 16 -53 -1 -8 -6 -1 -10 15 -6 22 -8 7 -9 -52 0 -45 2 -84 7 -86
4 -3 6 19 5 49 0 30 2 54 6 54 4 0 8 -14 8 -30 0 -17 10 -44 22 -61 12 -16 19
-35 15 -41 -5 -8 -2 -9 10 -5 9 4 15 3 12 -2 -8 -12 20 -34 36 -28 7 2 25 -4
39 -14 15 -11 36 -22 48 -27 l22 -8 -21 -22 c-11 -12 -18 -22 -14 -22 3 0 -7
-15 -22 -33 -16 -18 -36 -44 -46 -57 l-16 -25 3 38 c1 21 -2 40 -6 43 -5 3 -9
13 -9 22 1 15 3 14 17 -3 l16 -20 -7 20 c-5 15 -4 17 4 9 9 -9 9 -17 0 -34
-17 -32 -4 -36 16 -5 17 26 17 28 -1 41 -10 8 -31 14 -47 14 -26 0 -27 -2 -22
-32 12 -73 34 -116 65 -127 23 -8 29 -7 29 4 0 8 -4 17 -10 20 -20 12 -9 48
25 82 19 19 35 39 35 43 0 5 10 16 23 25 22 16 22 16 2 31 -11 8 -50 31 -86
50 -78 41 -105 82 -115 178 -5 50 -11 65 -39 93 -28 28 -40 33 -81 33 -27 0
-57 -5 -67 -11z m258 -289 c3 -5 1 -10 -4 -10 -6 0 -11 5 -11 10 0 6 2 10 4
10 3 0 8 -4 11 -10z"/>
<path d="M2370 4540 c0 -12 -7 -20 -16 -20 -14 0 -15 -19 -12 -150 2 -119 6
-150 17 -152 16 -3 22 -69 8 -79 -5 -3 -2 -9 7 -12 12 -5 16 0 16 18 0 16 6
25 15 25 8 0 15 5 15 10 0 6 -7 10 -15 10 -8 0 -15 7 -15 15 0 8 7 15 16 15 8
0 24 19 35 44 33 76 54 86 183 86 208 0 236 -28 184 -186 l-21 -66 -221 8
c-121 4 -227 7 -235 8 -8 1 -17 -7 -19 -16 -2 -10 2 -18 8 -18 6 0 8 5 4 12
-4 6 -3 8 3 5 17 -11 28 -184 12 -203 -9 -11 -9 -18 -1 -26 19 -19 113 -28
180 -17 34 6 71 9 82 6 17 -4 20 0 20 25 0 17 -4 27 -10 23 -5 -3 -10 1 -10
10 0 9 -4 14 -9 11 -5 -3 -7 -15 -4 -26 4 -16 2 -19 -11 -14 -9 3 -23 1 -31
-6 -8 -6 -44 -12 -82 -12 -116 0 -108 -8 -108 108 0 56 4 106 8 111 5 4 57 8
116 8 l106 0 -3 -33 c-3 -20 5 -54 19 -87 l24 -55 163 0 164 0 30 30 c18 19
44 32 69 36 l39 7 0 47 c0 49 -9 60 -51 60 -12 0 -19 7 -19 19 0 11 -3 26 -6
35 -4 11 -1 16 11 16 9 0 13 -5 9 -11 -4 -7 -1 -10 7 -7 14 5 19 66 7 96 -4
11 -7 7 -7 -15 -1 -21 -6 -33 -15 -33 -9 0 -15 20 -20 61 -8 84 -8 99 4 99 6
0 10 -7 10 -15 0 -8 4 -15 8 -15 4 0 12 -15 17 -32 6 -18 17 -34 25 -36 13 -2
15 15 15 107 0 113 -8 140 -39 128 -9 -4 -16 -17 -16 -29 0 -13 -8 -28 -19
-35 -16 -10 -22 -7 -40 18 -12 16 -29 29 -38 29 -13 0 -13 3 -3 15 11 13 6 15
-39 15 -34 0 -51 -4 -51 -13 0 -8 -34 -18 -97 -29 -201 -35 -212 -35 -283 22
-21 17 -45 30 -54 30 -9 0 -16 8 -16 20 0 11 -4 20 -10 20 -5 0 -10 -9 -10
-20z m36 -57 c-5 15 -3 16 17 6 31 -16 57 -45 49 -55 -4 -4 -1 -4 6 0 7 4 19
3 26 -3 8 -7 44 -9 97 -6 87 6 97 7 139 17 14 4 53 12 87 19 38 8 58 16 50 21
-8 5 -7 8 6 8 9 0 17 -4 17 -10 0 -5 6 -10 13 -10 6 -1 26 -18 42 -39 20 -25
36 -36 48 -33 9 2 17 9 17 15 0 6 3 7 7 3 4 -3 13 6 20 21 7 16 11 20 9 11 -3
-10 -1 -20 5 -23 5 -4 6 -12 2 -18 -4 -7 -6 -22 -4 -34 3 -29 -12 -29 -31 -1
-13 19 -18 21 -31 10 -9 -8 -20 -11 -25 -8 -5 3 -9 -1 -9 -9 0 -8 4 -15 9 -15
4 0 8 -5 8 -11 0 -5 -5 -7 -12 -3 -7 4 -8 3 -4 -5 11 -16 15 -111 5 -116 -12
-8 -2 -45 18 -68 17 -20 17 -20 -1 -13 -16 5 -17 4 -7 -8 11 -13 8 -16 -13
-22 -14 -3 -41 -4 -60 -2 -19 2 -32 0 -29 -5 3 -5 28 -7 57 -6 28 2 67 -1 86
-6 l35 -9 -30 -7 c-29 -6 -29 -7 9 -8 32 -1 36 -3 27 -15 -8 -9 -8 -15 -1 -18
5 -1 -11 -14 -37 -27 -27 -14 -56 -31 -65 -39 -23 -20 -317 -20 -329 0 -5 7
-7 17 -6 23 2 5 -2 16 -10 23 -7 8 -11 18 -8 23 4 5 2 9 -3 9 -6 0 -8 9 -5 20
5 20 33 29 33 10 0 -6 33 -9 83 -8 l82 2 -80 6 -80 5 85 7 c47 4 95 8 108 9
12 0 22 5 22 11 0 5 -4 7 -9 3 -16 -9 -18 29 -3 52 7 12 15 41 17 65 2 24 5
43 6 43 1 0 2 12 3 26 1 18 -2 25 -11 22 -8 -3 -11 0 -8 9 3 8 -2 21 -12 29
-17 13 -17 13 -3 -5 14 -18 14 -18 -7 -6 -12 8 -20 17 -17 22 7 10 -42 21 -66
15 -11 -3 -17 -1 -14 4 5 8 -165 1 -175 -7 -2 -2 -13 1 -24 7 -15 9 -18 8 -12
-2 6 -9 3 -11 -9 -6 -20 8 -41 -14 -76 -81 -42 -78 -55 -65 -58 63 -1 61 0
121 3 135 l7 25 15 -25 c8 -14 12 -17 9 -7z m592 -286 c8 -10 6 -13 -11 -14
-12 0 -16 1 -8 4 11 5 11 7 0 14 -8 5 -9 9 -3 9 6 0 16 -6 22 -13z"/>
<path d="M2440 4380 c-9 -6 -10 -10 -3 -10 6 0 15 5 18 10 8 12 4 12 -15 0z"/>
<path d="M2828 4063 c6 -2 18 -2 25 0 6 3 1 5 -13 5 -14 0 -19 -2 -12 -5z"/>
<path d="M2915 3970 c-16 -7 -17 -9 -3 -9 9 -1 20 4 23 9 7 11 7 11 -20 0z"/>
<path d="M2620 4546 c0 -2 7 -7 16 -10 8 -3 12 -2 9 4 -6 10 -25 14 -25 6z"/>
<path d="M3081 4533 c27 -7 52 -61 46 -100 -6 -32 -5 -34 7 -17 17 23 5 111
-14 99 -4 -3 -10 2 -14 10 -3 8 -13 14 -23 14 -14 -1 -15 -2 -2 -6z"/>
<path d="M3585 4391 c-3 -5 -2 -12 3 -15 5 -3 9 1 9 9 0 17 -3 19 -12 6z"/>
<path d="M3109 4368 c-1 -13 -3 -33 -4 -45 -1 -12 1 -20 5 -18 11 7 18 75 8
81 -4 3 -9 -5 -9 -18z"/>
<path d="M3695 4370 c-3 -5 -15 -10 -26 -10 -27 0 -90 -33 -114 -61 l-20 -22
25 7 c14 4 48 10 76 13 80 8 84 -3 84 -214 0 -95 3 -173 8 -173 8 0 9 23 12
160 1 49 5 92 10 95 5 3 5 17 -1 32 -7 20 -6 28 7 38 16 11 16 12 0 18 -9 4
-16 12 -16 19 0 21 -41 43 -90 48 l-45 5 50 13 c72 19 127 21 151 5 13 -8 35
-11 61 -7 31 4 42 2 46 -10 8 -20 -10 -31 -28 -16 -17 14 -54 9 -85 -13 -13
-9 -31 -17 -40 -17 -10 0 -11 -3 -3 -8 12 -7 26 -355 24 -612 0 -69 -1 -137
-1 -152 0 -18 -5 -28 -15 -28 -8 0 -15 5 -15 11 0 5 -5 7 -10 4 -7 -4 -10 38
-9 129 0 75 5 138 10 142 5 3 9 11 9 17 0 7 -4 6 -10 -3 -7 -11 -9 -2 -7 30 1
25 8 50 16 56 7 6 11 19 8 30 -4 17 -5 16 -6 -3 0 -13 -6 -23 -12 -23 -5 0 -8
4 -4 9 3 5 1 12 -4 15 -5 3 -11 -4 -15 -17 -8 -30 -8 -312 0 -371 l7 -46 43 0
44 0 -6 395 c-3 273 -2 401 6 415 11 21 64 28 75 10 3 -5 16 -10 28 -10 20 0
22 4 19 55 l-4 54 -39 -15 c-35 -14 -41 -14 -70 0 -36 18 -114 22 -124 6z"/>
<path d="M4095 4360 c-14 -23 -55 -155 -55 -178 0 -71 46 -142 91 -142 10 0
33 -13 51 -28 18 -15 46 -34 63 -41 26 -11 27 -14 12 -22 -9 -6 -17 -18 -17
-28 0 -10 -11 -39 -24 -64 -14 -25 -21 -49 -18 -53 4 -4 -1 -4 -11 -1 -10 4
-21 7 -23 7 -3 0 -3 4 1 9 3 5 1 12 -5 16 -5 3 -10 13 -10 22 0 9 -10 37 -21
61 -12 25 -22 57 -23 72 -1 17 -9 33 -21 40 -16 10 -18 10 -8 0 6 -7 9 -18 7
-24 -2 -6 9 -38 24 -71 16 -33 33 -75 36 -93 4 -18 17 -37 27 -43 14 -7 17
-14 11 -22 -5 -7 -12 -28 -16 -48 -4 -21 -12 -42 -19 -48 -11 -8 -16 1 -26 42
-16 64 -35 98 -27 48 3 -18 6 -47 6 -63 0 -17 4 -27 10 -23 6 3 10 2 10 -4 0
-5 -4 -11 -9 -13 -11 -4 -2 -68 10 -68 5 0 9 7 9 15 0 8 4 15 9 15 5 0 12 14
16 30 4 17 11 30 15 30 5 0 7 7 4 15 -4 8 -2 15 3 15 5 0 17 25 28 55 10 30
22 55 27 55 5 0 7 4 3 9 -3 5 -1 12 5 16 6 4 8 11 5 16 -4 5 -2 9 3 9 15 0 21
37 8 51 -8 9 -8 10 2 5 7 -5 15 2 21 17 6 14 15 28 20 32 6 3 11 16 11 28 0
12 6 39 14 62 17 50 37 157 31 163 -3 3 -16 -1 -30 -8 -23 -12 -28 -10 -69 28
-25 23 -62 46 -85 52 -34 9 -41 15 -41 35 0 25 -23 35 -35 15z m25 -44 c0 -14
56 -40 69 -31 7 4 51 -34 80 -70 8 -10 23 -15 37 -12 20 4 24 0 23 -22 -1 -32
-17 -76 -18 -49 -1 21 -105 102 -160 124 -39 16 -43 15 -61 -1 -20 -18 -20
-17 -4 29 15 44 34 62 34 32z m27 -78 c15 -7 56 -35 91 -62 56 -43 63 -52 57
-75 -12 -47 -40 -53 -76 -15 -13 14 -41 35 -61 45 -48 24 -72 61 -64 94 7 28
14 30 53 13z m-39 -98 c19 -22 38 -37 43 -34 5 3 9 0 9 -6 0 -7 7 -10 15 -6 8
3 14 2 14 -2 -3 -21 2 -34 14 -29 6 2 18 -2 25 -9 7 -8 10 -14 6 -14 -4 0 -5
-2 -2 -5 3 -3 17 -1 32 5 15 5 25 6 21 1 -3 -5 -1 -12 5 -16 7 -4 7 -12 0 -25
-13 -24 -44 -16 -87 21 -18 16 -50 33 -72 39 -52 14 -62 29 -67 102 -2 35 0
53 4 41 4 -12 22 -41 40 -63z"/>
<path d="M4084 4108 c-4 -7 -3 -8 4 -4 7 4 12 3 12 -2 0 -5 7 -9 15 -9 11 0
12 4 4 14 -14 16 -26 17 -35 1z"/>
<path d="M4255 4010 c-3 -5 1 -10 9 -10 8 0 18 5 21 10 3 6 -1 10 -9 10 -8 0
-18 -4 -21 -10z"/>
<path d="M3141 4334 c0 -11 3 -14 6 -6 3 7 2 16 -1 19 -3 4 -6 -2 -5 -13z"/>
<path d="M3762 4341 c-11 -7 -10 -9 3 -14 9 -4 14 -3 10 2 -3 5 1 12 7 14 7 3
9 6 3 6 -5 0 -16 -3 -23 -8z"/>
<path d="M4245 4309 c-3 -4 6 -6 20 -4 15 1 29 -4 35 -14 5 -9 10 -11 10 -4 0
21 -54 40 -65 22z"/>
<path d="M1128 4303 c7 -3 16 -2 19 1 4 3 -2 6 -13 5 -11 0 -14 -3 -6 -6z"/>
<path d="M3190 4279 c0 -5 5 -7 10 -4 6 3 10 8 10 11 0 2 -4 4 -10 4 -5 0 -10
-5 -10 -11z"/>
<path d="M3145 4260 c3 -5 8 -10 11 -10 2 0 4 5 4 10 0 6 -5 10 -11 10 -5 0
-7 -4 -4 -10z"/>
<path d="M3096 4253 c-7 -7 11 -42 37 -70 24 -27 65 -30 93 -8 18 15 18 16 -6
14 -52 -3 -71 2 -77 18 -9 22 -40 53 -47 46z"/>
<path d="M1495 4241 c-3 -5 -2 -12 3 -15 5 -3 9 1 9 9 0 17 -3 19 -12 6z"/>
<path d="M3295 4240 c-3 -5 -1 -10 4 -10 6 0 11 5 11 10 0 6 -2 10 -4 10 -3 0
-8 -4 -11 -10z"/>
<path d="M2291 4224 c0 -11 3 -14 6 -6 3 7 2 16 -1 19 -3 4 -6 -2 -5 -13z"/>
<path d="M3183 4233 c-7 -3 -13 -9 -13 -15 0 -7 5 -6 14 1 11 9 17 8 29 -4 17
-17 31 -20 22 -5 -9 15 -39 28 -52 23z"/>
<path d="M3077 4210 c-3 -11 -1 -20 4 -20 5 0 9 9 9 20 0 11 -2 20 -4 20 -2 0
-6 -9 -9 -20z"/>
<path d="M3320 4222 c0 -5 7 -15 15 -22 8 -7 15 -9 15 -6 0 4 -7 14 -15 22 -8
9 -15 11 -15 6z"/>
<path d="M3250 4200 c0 -5 5 -10 11 -10 5 0 7 5 4 10 -3 6 -8 10 -11 10 -2 0
-4 -4 -4 -10z"/>
<path d="M1080 4146 c7 -7 13 -7 20 0 6 6 3 10 -10 10 -13 0 -16 -4 -10 -10z"/>
<path d="M3096 4148 c3 -5 10 -6 15 -3 13 9 11 12 -6 12 -8 0 -12 -4 -9 -9z"/>
<path d="M3753 4120 c0 -25 2 -35 4 -22 2 12 2 32 0 45 -2 12 -4 2 -4 -23z"/>
<path d="M4021 4114 c0 -11 3 -14 6 -6 3 7 2 16 -1 19 -3 4 -6 -2 -5 -13z"/>
<path d="M1210 4100 c-9 -6 -10 -10 -3 -10 6 0 15 5 18 10 8 12 4 12 -15 0z"/>
<path d="M2247 4093 c-9 -8 -9 -86 -1 -135 5 -28 11 -38 25 -38 17 0 19 8 19
74 0 41 3 81 6 90 5 12 0 16 -18 16 -14 0 -28 -3 -31 -7z m30 -108 c0 -8 -4
-12 -9 -9 -5 3 -6 10 -3 15 9 13 12 11 12 -6z"/>
<path d="M4007 4084 c-4 -4 -2 -13 4 -20 8 -10 7 -15 -4 -20 -9 -3 -13 -13
-10 -25 3 -11 0 -19 -7 -19 -7 0 -9 -8 -5 -20 5 -15 2 -20 -11 -20 -14 0 -15
-3 -6 -12 16 -16 15 -28 -2 -28 -9 0 -12 -7 -9 -20 3 -11 1 -20 -5 -20 -6 0
-8 -9 -5 -20 3 -11 1 -20 -5 -20 -6 0 -8 -9 -5 -20 3 -12 0 -20 -7 -20 -7 0
-9 -8 -5 -20 4 -12 2 -20 -5 -20 -7 0 -9 -8 -5 -20 4 -12 2 -20 -5 -20 -7 0
-9 -8 -5 -20 5 -14 2 -20 -9 -20 -19 0 -21 -11 -4 -28 9 -9 8 -12 -5 -12 -9 0
-17 -4 -17 -10 0 -13 2 -13 36 5 22 11 24 15 10 15 -13 0 -16 3 -9 13 11 13
27 67 25 80 -1 4 4 10 11 13 8 3 12 19 11 44 -1 22 2 40 7 40 4 0 6 7 3 15 -4
8 -2 15 4 15 6 0 13 18 17 40 4 22 11 43 16 46 6 3 7 14 4 25 -4 10 -2 19 3
19 12 0 24 72 14 82 -5 5 -11 5 -15 2z"/>
<path d="M4473 3988 c-212 -272 -353 -461 -347 -467 3 -3 24 14 46 39 22 25
37 39 33 31 -6 -10 -4 -12 4 -6 7 4 10 16 8 27 -5 16 -3 17 9 7 12 -10 13 -9
8 6 -5 13 -4 16 4 11 8 -5 10 -2 6 8 -4 11 0 16 11 16 11 0 15 5 11 15 -3 8 0
14 7 12 7 -1 11 6 11 15 -1 10 2 16 6 15 13 -3 70 75 63 86 -3 6 -1 7 5 3 7
-4 12 -3 12 2 0 5 18 34 41 66 32 45 44 55 54 46 10 -9 16 -6 25 9 6 12 7 21
3 20 -4 -1 -12 -1 -16 0 -10 1 43 79 72 105 21 19 22 19 49 -6 15 -14 39 -37
55 -50 15 -14 27 -29 27 -33 0 -4 -20 -31 -45 -59 -25 -29 -45 -57 -45 -62 0
-5 -9 -15 -20 -22 -21 -13 -28 -42 -9 -42 5 0 7 5 3 12 -4 6 -3 8 3 5 5 -3 20
11 32 33 23 41 41 59 41 41 0 -6 -24 -39 -53 -74 -30 -34 -56 -69 -59 -77 -3
-10 -6 -11 -11 -3 -4 7 2 21 15 32 12 12 18 24 14 28 -4 4 -10 2 -15 -5 -6
-10 -51 -64 -110 -131 -12 -13 -21 -27 -21 -31 0 -4 -10 -18 -21 -31 -12 -13
-33 -40 -48 -59 -14 -19 -28 -37 -31 -40 -3 -3 -21 -25 -39 -50 -19 -25 -41
-50 -49 -57 -12 -10 -12 -16 -3 -27 9 -11 8 -15 -5 -20 -22 -8 -22 -9 -16 20
3 19 -9 54 -44 120 -41 78 -46 96 -35 103 12 8 11 13 -10 31 -19 16 -33 20
-68 15 -24 -3 -54 -5 -66 -5 -18 0 -22 -4 -18 -20 6 -23 23 -27 23 -5 0 8 5
15 10 15 16 0 12 -37 -5 -44 -25 -9 -45 4 -45 30 0 23 -10 31 -23 17 -4 -3 -2
-12 4 -19 11 -14 4 -34 -12 -34 -5 0 -9 14 -9 30 0 33 -15 38 -45 16 -24 -17
-28 -44 -7 -51 25 -7 135 -8 159 -1 15 5 19 13 16 30 -3 16 1 25 13 30 9 3 19
4 22 1 3 -3 0 -5 -6 -5 -7 0 -12 -9 -12 -21 0 -16 4 -19 18 -14 9 3 19 7 22 8
3 1 7 -2 9 -8 13 -32 -165 -69 -228 -47 -29 10 -31 9 -30 -11 0 -12 3 -16 6
-9 2 6 11 12 19 12 10 0 12 -8 8 -30 -7 -34 -3 -37 21 -14 13 14 14 19 3 25
-8 6 2 8 27 8 26 0 34 -3 22 -7 -16 -7 -16 -10 -3 -27 14 -19 15 -19 21 8 8
32 31 36 40 7 11 -33 32 -21 26 14 -2 9 18 26 30 26 4 0 6 -7 5 -16 0 -9 5
-19 13 -22 10 -3 13 2 9 21 -3 16 0 28 8 31 13 5 18 -6 15 -26 0 -5 6 -8 15
-8 8 0 12 -4 9 -10 -3 -5 -1 -10 4 -10 6 0 11 -9 11 -20 0 -17 -5 -19 -25 -14
-20 5 -27 1 -36 -20 -13 -28 -25 -32 -49 -16 -10 6 -21 3 -37 -12 -22 -21 -23
-21 -43 -3 -18 17 -21 17 -45 1 -25 -16 -26 -16 -49 10 -41 49 -56 28 -71
-106 -4 -27 -3 -30 3 -10 l8 24 13 -31 c11 -28 11 -35 -6 -57 -22 -31 -33 -33
-26 -6 3 11 1 26 -4 33 -6 6 -13 25 -17 40 -4 16 -27 50 -52 77 -46 49 -50 74
-14 85 23 7 33 34 19 51 -29 35 -294 47 -333 15 -23 -20 -20 -46 9 -65 33 -22
32 -37 -5 -64 -34 -26 -39 -42 -11 -42 22 0 44 23 33 35 -4 5 -1 5 6 1 11 -6
16 4 14 25 -1 4 33 5 76 3 53 -3 72 -1 62 6 -8 5 -26 10 -40 10 -32 0 -88 20
-120 42 -20 15 -22 20 -11 30 10 9 12 9 7 1 -13 -24 171 -38 258 -20 37 8 39
7 26 -8 -8 -10 -25 -21 -37 -26 -26 -10 -26 -28 0 -47 9 -7 15 -17 12 -22 -3
-4 1 -10 7 -13 7 -2 10 -7 7 -11 -3 -4 -19 -2 -34 4 -25 10 -27 9 -15 -5 12
-15 5 -16 -76 -12 -49 3 -97 8 -106 12 -10 4 -26 4 -35 -1 -28 -12 28 -21 133
-23 98 -1 157 7 149 19 -3 5 4 6 15 3 66 -17 -75 -47 -190 -40 -47 2 -104 11
-127 20 -39 13 -44 13 -58 -3 -12 -13 -13 -23 -4 -48 11 -32 33 -36 23 -4 -5
13 -4 14 4 3 5 -7 15 -10 21 -7 18 11 13 26 -8 26 -11 0 -23 5 -27 11 -5 9 1
10 22 5 111 -29 217 -32 314 -12 73 16 89 13 41 -7 l-31 -13 23 -21 24 -20 10
26 11 26 1 -27 c2 -57 -9 -62 -50 -22 -21 21 -40 36 -42 33 -2 -2 -15 -23 -29
-47 l-26 -44 -32 46 -33 45 -36 -45 -36 -44 -22 50 c-13 27 -26 50 -31 50 -4
0 -23 -16 -42 -35 -19 -19 -37 -35 -42 -35 -4 0 -10 16 -14 36 -5 30 -8 34
-16 20 -7 -12 -5 -28 7 -52 l16 -35 47 41 46 41 20 -51 c12 -27 24 -50 28 -50
4 0 22 18 39 40 18 22 35 40 38 40 3 0 19 -20 34 -45 16 -25 31 -45 33 -45 2
0 15 23 30 51 l26 52 44 -44 c36 -35 44 -39 44 -24 0 11 5 27 11 35 8 11 9 8
4 -15 -11 -50 -22 -52 -63 -12 l-37 36 -28 -49 c-21 -37 -24 -50 -14 -50 8 0
20 14 27 30 15 35 30 38 55 10 26 -28 45 -25 88 16 41 39 48 74 21 112 -9 13
-14 25 -12 27 2 2 26 -3 53 -11 86 -26 222 -4 298 49 16 10 30 17 32 15 2 -2
1 -22 -2 -45 l-6 -42 -28 14 c-37 20 -37 20 -54 -21 -12 -30 -17 -34 -34 -24
-11 5 -23 15 -26 20 -13 21 -52 10 -75 -21 -29 -41 -19 -74 29 -100 32 -17 36
-17 53 -2 10 9 23 34 30 55 6 22 20 44 30 49 10 5 18 16 18 24 0 19 16 19 24
0 3 -8 1 -15 -4 -15 -6 0 -10 -7 -10 -15 0 -9 -9 -15 -22 -15 l-21 0 22 -23
c25 -27 37 -69 17 -61 -7 2 -30 -3 -52 -12 -21 -9 -63 -17 -91 -16 -36 0 -53
-4 -53 -13 0 -8 -9 -10 -27 -7 l-28 6 25 8 c20 6 17 7 -12 4 -22 -3 -39 0 -42
7 -3 9 -5 9 -5 0 -1 -16 -41 -17 -41 -2 0 6 7 9 15 5 8 -3 15 -2 15 3 0 5 -11
11 -25 13 -19 4 -25 1 -25 -13 0 -19 12 -24 83 -34 21 -3 48 -10 59 -16 11 -6
22 -8 26 -5 3 3 0 6 -8 6 -10 0 -10 3 0 15 7 8 24 14 39 14 25 -1 25 -2 -4 -8
-20 -4 -26 -9 -18 -14 7 -4 23 -2 35 4 13 7 38 12 56 10 35 -3 66 15 55 32 -3
6 -1 7 6 3 6 -4 9 -12 6 -17 -4 -5 -2 -9 4 -9 5 0 13 5 16 10 3 6 11 10 16 10
6 0 7 -4 4 -10 -3 -6 1 -7 9 -4 9 3 16 1 16 -4 0 -6 -26 -21 -57 -33 -77 -31
-260 -34 -310 -6 -18 10 -33 15 -33 12 0 -21 38 -85 50 -85 13 0 13 1 0 10
-20 13 -8 13 26 0 15 -6 44 -13 63 -15 279 -34 270 -34 297 12 l22 37 -49 73
c-27 40 -49 80 -49 91 0 29 61 82 95 82 25 0 36 -9 64 -52 l34 -53 21 30 c38
54 110 116 132 113 19 -3 91 51 312 235 92 76 91 66 22 157 -64 86 -64 86
-203 -34 -106 -90 -200 -180 -157 -150 47 33 160 127 160 133 0 4 7 8 15 8 11
0 13 -6 9 -21 l-7 -21 19 20 c11 11 30 31 44 44 l25 24 -33 -23 c-18 -12 -36
-19 -40 -15 -4 4 -1 10 6 12 7 3 18 10 25 16 7 7 24 22 38 34 l25 23 39 -53
c22 -28 46 -58 53 -65 11 -12 9 -32 -4 -32 -3 0 -2 5 1 10 14 23 -21 8 -63
-27 -25 -21 -62 -48 -81 -62 -40 -26 -52 -41 -44 -54 2 -4 15 3 26 16 12 13
38 34 57 47 25 16 19 7 -20 -28 -39 -35 -59 -47 -67 -40 -8 7 -19 3 -35 -12
-13 -12 -42 -35 -66 -52 -38 -26 -41 -32 -30 -46 11 -15 11 -15 -3 -4 -13 10
-21 8 -45 -10 -40 -31 -94 -79 -113 -100 -8 -10 -21 -18 -27 -18 -13 0 -28 28
-25 48 1 7 -2 12 -6 11 -17 -3 -33 1 -33 9 0 4 24 37 53 72 29 36 59 75 67 87
8 11 74 94 145 184 72 89 151 189 178 223 l48 60 -68 68 c-94 95 -100 94 -200
-34z m231 -34 c3 -8 2 -12 -4 -9 -6 3 -10 1 -10 -4 0 -17 -39 -51 -45 -41 -4
6 -2 10 4 10 5 0 18 14 28 30 20 35 19 34 27 14z m-224 -25 c0 -6 -4 -7 -10
-4 -5 3 -10 11 -10 16 0 6 5 7 10 4 6 -3 10 -11 10 -16z m28 -231 c-2 -7 -13
-23 -25 -34 -11 -12 -28 -35 -37 -53 -9 -17 -21 -31 -27 -31 -6 0 -7 -5 -3
-12 5 -7 3 -8 -6 -3 -10 6 -12 4 -7 -9 4 -9 3 -15 -1 -12 -4 2 -28 -24 -55
-57 -96 -126 -115 -148 -122 -137 -4 6 5 22 19 35 14 13 26 26 26 29 0 6 6 15
84 107 30 37 52 70 48 74 -4 5 -1 4 7 0 11 -6 13 -4 8 8 -4 11 -2 14 9 10 12
-4 14 -1 14 22 0 6 61 75 67 75 1 0 2 -6 1 -12z m282 -83 c-13 -14 -26 -23
-28 -20 -4 4 38 44 47 45 3 0 -6 -11 -19 -25z m-915 -55 c-3 -5 -11 -10 -16
-10 -6 0 -7 5 -4 10 3 6 11 10 16 10 6 0 7 -4 4 -10z m-315 -60 c0 -6 -24 -10
-52 -10 -29 0 -48 4 -41 8 18 11 93 13 93 2z m40 0 c0 -5 -5 -10 -11 -10 -5 0
-7 5 -4 10 3 6 8 10 11 10 2 0 4 -4 4 -10z m1015 -30 c-10 -11 -23 -20 -29
-20 -6 1 0 10 13 20 30 26 39 26 16 0z m-468 -50 c-2 -11 -10 -26 -17 -33 -12
-10 -12 -9 -1 6 7 9 10 17 5 17 -13 -1 -46 -27 -44 -35 1 -4 -2 -10 -6 -13 -4
-4 -4 -1 0 6 9 15 13 15 -54 -3 -84 -22 -171 -17 -220 15 -12 7 -12 12 -2 22
11 11 16 9 31 -11 17 -22 21 -23 51 -12 19 6 36 7 39 3 13 -19 40 -20 56 -2
13 15 22 17 36 10 22 -13 47 -3 54 20 4 12 18 20 38 23 18 2 33 5 34 5 2 1 1
-7 0 -18z m401 -5 c-25 -29 -24 -29 -31 -11 -4 11 -1 13 10 9 10 -4 14 -2 10
4 -4 6 -1 14 5 16 26 11 27 6 6 -18z m-527 -142 c33 -20 34 -22 15 -68 -18
-42 -34 -44 -69 -7 l-26 28 19 32 c23 37 23 37 61 15z m54 -133 c-3 -5 -14
-10 -23 -9 -14 0 -13 2 3 9 27 11 27 11 20 0z m40 -75 c-16 -7 -34 -10 -40 -7
-5 4 4 10 20 13 47 10 53 9 20 -6z m83 -2 c-2 -10 -9 -17 -15 -16 -6 1 -10 -5
-9 -15 1 -15 -12 -17 -104 -19 l-105 -2 82 19 c45 10 94 26 110 34 37 20 45
20 41 -1z m-138 2 c0 -11 -52 -25 -63 -18 -7 5 0 10 18 14 43 9 45 10 45 4z
m-156 -13 c2 -4 -4 -8 -14 -8 -10 0 -16 4 -14 8 3 4 9 8 14 8 5 0 11 -4 14 -8z
m76 3 c0 -2 -10 -10 -22 -16 -21 -11 -22 -11 -9 4 13 16 31 23 31 12z"/>
<path d="M3995 3239 c-4 -5 -4 -13 -1 -16 3 -4 6 0 6 8 0 11 2 11 10 -1 6 -9
10 -10 10 -3 0 17 -17 25 -25 12z"/>
<path d="M2505 4070 c3 -5 8 -10 11 -10 2 0 4 5 4 10 0 6 -5 10 -11 10 -5 0
-7 -4 -4 -10z"/>
<path d="M3470 4070 c-9 -6 -10 -10 -3 -10 6 0 15 5 18 10 8 12 4 12 -15 0z"/>
<path d="M4696 4071 c-3 -5 2 -15 12 -22 15 -12 16 -12 5 2 -7 9 -10 19 -6 22
3 4 4 7 0 7 -3 0 -8 -4 -11 -9z"/>
<path d="M2510 4024 c0 -10 5 -26 10 -34 8 -11 9 -7 4 15 -8 37 -14 45 -14 19z"/>
<path d="M3752 4010 c0 -19 2 -27 5 -17 2 9 2 25 0 35 -3 9 -5 1 -5 -18z"/>
<path d="M3406 4016 c-18 -15 -31 -56 -17 -56 6 0 11 -6 11 -14 0 -8 5 -16 12
-18 9 -3 8 -16 -1 -52 -6 -26 -9 -58 -5 -69 9 -32 44 -67 82 -83 39 -16 40
-44 2 -55 -14 -4 -20 -8 -15 -9 6 -1 1 -5 -10 -10 -19 -8 -19 -9 2 -9 12 -1
33 3 47 9 21 8 24 7 19 -8 -6 -16 -5 -16 14 1 11 9 27 17 36 17 9 0 17 5 17
10 0 6 -4 10 -10 10 -17 0 -11 28 8 35 34 11 73 55 77 87 2 17 9 44 15 58 6
15 10 45 8 66 -4 51 -32 57 -73 14 -42 -44 -69 -39 -126 21 -27 27 -49 54 -49
58 0 11 -29 9 -44 -3z m47 -41 c14 -6 15 -10 6 -21 -7 -8 -9 -17 -5 -21 3 -3
6 -1 6 5 0 7 5 12 11 12 6 0 8 -7 5 -17 -4 -10 -4 -14 0 -10 4 3 20 -3 37 -15
43 -31 89 -29 123 6 28 27 28 27 36 6 5 -13 2 -35 -9 -58 -9 -20 -16 -50 -15
-67 1 -22 -2 -26 -8 -15 -8 12 -10 12 -10 1 0 -7 -12 -23 -27 -34 -31 -25 -70
-28 -65 -6 3 11 1 11 -9 2 -9 -9 -15 -8 -26 3 -8 8 -18 12 -22 9 -28 -17 -57
78 -42 133 6 21 5 36 -3 49 -31 46 -27 57 17 38z m105 -287 c-2 -6 -10 -14
-16 -16 -7 -2 -10 2 -6 12 7 18 28 22 22 4z"/>
<path d="M3560 3746 c7 -7 13 -7 20 0 6 6 3 10 -10 10 -13 0 -16 -4 -10 -10z"/>
<path d="M4541 4008 c-14 -23 -14 -23 8 -4 22 20 25 26 13 26 -4 0 -13 -10
-21 -22z"/>
<path d="M2156 3991 c-4 -5 1 -17 10 -25 14 -15 14 -18 -3 -39 -13 -16 -26
-21 -50 -19 -27 3 -33 -1 -38 -20 -3 -13 -16 -28 -28 -33 -16 -7 -22 -18 -21
-39 0 -17 -7 -37 -16 -46 -24 -24 -22 -128 3 -144 12 -8 22 -8 34 0 13 8 21 6
35 -8 13 -13 23 -16 36 -9 18 9 182 -2 217 -15 31 -11 55 -35 55 -56 0 -10 -6
-18 -14 -18 -9 0 -12 -10 -10 -30 2 -16 -1 -30 -7 -30 -6 0 -8 4 -5 9 3 5 -2
15 -11 22 -13 11 -15 11 -9 1 5 -8 1 -19 -10 -27 -18 -13 -18 -14 4 -8 30 7
28 -10 -3 -27 -28 -15 -35 -43 -9 -33 14 5 33 -11 34 -29 0 -4 -12 -14 -27
-22 -16 -8 -24 -15 -20 -16 5 0 17 5 28 10 13 7 19 7 19 1 0 -6 -13 -17 -30
-26 -30 -15 -30 -15 -30 13 0 20 7 33 23 41 l22 11 -24 -6 c-13 -3 -21 -2 -18
3 3 5 1 15 -4 23 -8 13 -10 13 -19 0 -5 -9 -6 -16 0 -18 5 -2 -1 -19 -12 -38
-13 -23 -27 -34 -41 -33 -12 0 -16 3 -9 6 10 4 10 8 2 18 -9 11 -5 17 17 29
l28 16 -29 -6 c-20 -5 -27 -4 -22 4 4 8 2 10 -8 6 -8 -3 -13 -13 -11 -22 2 -9
4 -21 5 -27 6 -27 -2 -45 -19 -45 -11 0 -23 -4 -26 -10 -8 -12 -3 -13 29 0 35
13 33 -3 -1 -17 l-28 -12 28 6 c16 3 27 1 27 -6 0 -6 -6 -11 -12 -11 -9 0 -8
-4 2 -10 13 -9 13 -11 0 -20 -13 -9 -13 -10 0 -10 13 0 13 -1 0 -10 -8 -5 -26
-9 -40 -9 -25 0 -25 0 -2 9 29 12 28 18 -3 12 -14 -2 -25 -11 -25 -18 0 -8 -9
-14 -20 -14 -11 0 -23 -1 -27 -2 -4 -2 -9 5 -11 14 -2 12 6 19 31 23 33 6 34
9 33 48 -1 33 3 43 21 52 18 9 20 14 10 24 -9 10 -8 11 6 6 10 -5 17 -2 17 5
0 8 -13 10 -42 6 -33 -5 -38 -4 -20 4 24 10 26 18 12 40 -8 12 -10 11 -10 -6
0 -12 -7 -25 -16 -28 -24 -9 -56 -7 -49 3 3 5 1 12 -5 16 -9 6 -12 0 -9 -22 0
-4 -8 -11 -18 -15 -10 -5 1 -6 27 -3 32 4 39 2 25 -4 -11 -5 -33 -10 -50 -10
-19 -1 -26 -4 -19 -11 6 -6 22 -6 44 0 46 13 49 13 48 -7 0 -10 3 -32 7 -49 6
-28 4 -32 -20 -38 -31 -8 -30 -8 -39 22 -6 16 -3 22 8 22 9 0 16 -4 16 -10 0
-5 5 -10 10 -10 6 0 10 9 10 19 0 14 -5 18 -20 14 -11 -3 -20 0 -20 6 0 6 -11
11 -24 11 -14 0 -28 5 -31 10 -3 6 -18 10 -33 11 -26 0 -25 1 8 14 19 7 31 14
25 14 -5 1 -4 5 4 10 8 5 10 14 6 21 -6 9 -12 5 -22 -14 -9 -16 -22 -26 -36
-26 -19 0 -23 -5 -23 -27 1 -25 -3 -28 -33 -31 -27 -3 -33 0 -28 12 3 8 1 17
-6 20 -7 2 3 5 21 5 17 1 32 5 32 9 0 4 -16 6 -35 4 -21 -3 -35 -10 -35 -18 0
-8 -4 -14 -10 -14 -5 0 -10 7 -10 15 0 9 -9 15 -21 15 -19 0 -19 1 -5 16 9 8
20 12 26 9 5 -3 10 0 10 8 0 10 -7 13 -20 10 -11 -3 -20 -10 -20 -16 0 -5 -9
0 -20 13 -12 14 -20 18 -20 9 0 -7 -7 -3 -16 10 -14 19 -14 25 -3 32 7 4 18 4
24 -1 18 -14 102 -23 109 -11 4 6 0 11 -8 11 -14 0 -18 6 -15 26 0 4 -5 10
-12 15 -9 5 -5 11 15 20 23 11 29 10 37 -2 18 -28 22 -61 8 -70 -10 -6 -3 -9
20 -9 30 0 32 2 19 13 -9 6 -21 29 -28 51 -10 31 -10 40 1 48 11 8 10 9 -3 4
-21 -6 -24 14 -5 33 10 10 9 11 -5 6 -10 -4 -18 -14 -18 -22 0 -12 -7 -14 -27
-10 -16 3 -35 0 -44 -6 -17 -13 -33 -47 -30 -62 1 -5 -3 -5 -10 2 -10 10 -9
16 2 30 12 16 11 15 -9 -1 -18 -16 -20 -22 -9 -34 10 -13 9 -15 -10 -10 -13 4
-23 2 -23 -2 0 -5 -3 -15 -6 -23 -3 -8 1 -21 8 -28 8 -8 26 -39 40 -69 66
-134 123 -165 291 -158 70 3 121 11 160 26 89 32 158 90 162 134 0 3 3 10 8
14 11 11 9 26 -3 19 -5 -3 -10 -2 -10 3 0 6 7 12 15 16 8 3 15 14 15 25 0 14
-5 19 -15 15 -11 -5 -15 1 -15 20 0 14 5 26 11 26 6 0 9 -7 5 -15 -3 -8 -1
-15 4 -15 6 0 9 20 8 45 -1 37 3 49 20 61 27 19 28 50 3 65 -11 8 -16 19 -13
31 2 10 -1 25 -8 33 -10 12 -10 18 0 30 6 8 9 19 5 26 -4 6 -2 22 5 35 15 27
0 54 -31 54 -10 0 -19 9 -21 21 -4 32 -33 47 -58 32 -24 -16 -43 -9 -55 20
-12 26 -42 34 -59 16 -8 -9 -7 -11 6 -6 9 3 23 -2 33 -13 15 -17 15 -19 -3
-32 -11 -7 -21 -22 -24 -33 -3 -16 -10 -19 -33 -17 -38 4 -49 15 -41 40 7 21
63 36 69 18 2 -5 9 -6 16 -2 9 6 4 13 -18 23 -29 15 -30 16 -14 39 8 13 21 24
29 24 7 0 15 3 17 8 7 11 -51 64 -57 53z m-35 -134 c-7 -7 -15 -6 -26 3 -16
13 -15 15 1 27 15 11 20 11 27 -3 6 -10 5 -20 -2 -27z m-41 -18 c0 6 5 11 10
11 15 0 12 -37 -5 -54 -20 -20 -51 -10 -34 10 10 12 8 13 -6 8 -15 -6 -16 -4
-5 15 9 18 14 20 26 10 10 -8 14 -8 14 0z m240 -19 c-8 -5 -6 -9 5 -14 9 -3
13 -10 10 -16 -9 -15 -45 7 -45 29 0 25 11 33 27 19 10 -8 11 -13 3 -18z m-65
2 c-3 -3 -11 0 -18 7 -9 10 -8 11 6 5 10 -3 15 -9 12 -12z m0 -14 c28 -12 34
-48 11 -67 -10 -9 -16 -8 -26 4 -7 8 -19 15 -26 15 -17 0 -18 32 -2 48 15 15
12 15 43 0z m125 -44 c0 -8 -4 -14 -10 -14 -5 0 -10 2 -10 4 0 2 -3 12 -6 20
-5 12 -2 15 10 10 9 -3 16 -12 16 -20z m-219 4 c3 -31 -4 -64 -15 -70 -17 -12
-79 -3 -84 12 -3 8 0 10 8 5 10 -6 12 -4 7 7 -10 28 20 52 71 57 6 0 12 -5 13
-11z m-101 -22 c0 -13 -6 -29 -14 -35 -12 -10 -17 -8 -26 9 -15 28 -8 45 19
47 16 1 21 -4 21 -21z m286 -1 c7 -27 -20 -66 -29 -42 -3 6 -4 -1 -3 -18 2
-34 -17 -60 -40 -51 -8 3 -12 2 -9 -4 3 -6 -1 -10 -9 -10 -9 0 -16 7 -16 15 0
8 5 15 12 15 9 0 9 3 1 11 -12 12 3 59 19 59 4 0 8 6 8 13 0 39 56 50 66 12z
m-118 -7 c15 -15 16 -55 1 -63 -19 -12 -59 4 -59 24 0 47 30 67 58 39z m144
-50 c-15 -15 -26 -4 -18 18 5 13 9 15 18 6 9 -9 9 -15 0 -24z m-320 -23 c-3
-18 -11 -25 -26 -24 -11 0 -15 3 -8 6 13 5 17 24 5 22 -17 -3 -24 2 -18 11 3
6 17 10 29 10 19 0 22 -4 18 -25z m81 11 c3 3 8 1 12 -5 3 -6 1 -11 -5 -11 -6
0 -9 -4 -5 -9 9 -15 -32 -23 -55 -11 -16 9 -18 15 -10 30 8 15 15 18 34 10 13
-5 26 -6 29 -4z m245 -45 c3 -18 -2 -21 -27 -21 -24 0 -31 4 -31 19 0 11 5 23
10 26 6 4 7 12 3 18 -4 7 4 5 17 -4 14 -9 26 -26 28 -38z m-158 14 c7 -8 11
-15 9 -16 -2 0 -19 -1 -37 -2 -24 -2 -32 2 -32 16 0 22 42 23 60 2z m189 -89
c-3 -3 -11 5 -18 17 -13 21 -12 21 5 5 10 -10 16 -20 13 -22z m-569 -56 c9 -6
10 -10 3 -10 -20 0 -45 -31 -35 -44 5 -6 11 -18 15 -27 4 -12 0 -15 -19 -11
-26 5 -28 22 -6 75 12 29 19 32 42 17z m510 -80 c0 -5 -4 -10 -10 -10 -5 0
-10 5 -10 10 0 6 5 10 10 10 6 0 10 -4 10 -10z m-220 -99 c0 -6 -4 -13 -10
-16 -5 -3 -10 1 -10 9 0 9 5 16 10 16 6 0 10 -4 10 -9z m150 -15 c0 -7 -15
-18 -32 -24 l-33 -11 35 5 c41 7 31 -11 -12 -21 -24 -6 -28 -4 -28 14 0 14 6
21 20 21 11 0 23 7 26 15 8 19 24 20 24 1z m60 -6 c0 -5 -4 -10 -10 -10 -5 0
-9 -5 -7 -12 1 -6 -8 -17 -20 -23 -13 -7 -20 -15 -16 -19 4 -4 -1 -4 -11 0
-12 5 -17 4 -13 -3 7 -12 -40 -40 -50 -30 -3 4 1 7 10 7 9 0 18 4 21 9 4 5 -3
7 -14 4 -11 -3 -20 -1 -20 5 0 5 16 13 35 16 25 5 39 14 45 30 11 29 50 49 50
26z m-313 -45 c0 -5 4 -17 7 -26 5 -12 0 -18 -16 -23 -37 -9 -45 -7 -51 14 -4
15 0 20 13 20 11 0 21 4 24 8 3 5 -8 6 -25 4 -17 -3 -29 0 -29 7 0 6 10 12 23
12 l22 2 -23 4 c-12 2 -20 8 -17 13 7 11 71 -21 72 -35z m-203 29 c9 -3 13
-10 10 -15 -3 -5 3 -9 12 -9 10 0 14 -3 11 -7 -4 -3 -2 -12 4 -20 13 -15 -6
-18 -36 -7 -13 5 -14 8 -3 15 10 6 8 9 -7 9 -17 0 -17 2 -5 10 13 8 12 10 -3
10 -10 0 -15 5 -12 10 7 12 8 12 29 4z m137 -82 l18 -42 -27 6 c-42 10 -49 18
-22 25 23 6 22 7 -8 8 -19 1 -31 5 -27 11 3 6 1 10 -4 10 -6 0 -11 5 -11 10 0
6 11 10 25 10 14 0 24 3 24 8 -3 17 3 26 8 12 3 -8 14 -34 24 -58z m-58 51
c-7 -2 -19 -2 -25 0 -7 3 -2 5 12 5 14 0 19 -2 13 -5z m-30 -50 c-7 -2 -19 -2
-25 0 -7 3 -2 5 12 5 14 0 19 -2 13 -5z m175 -26 c3 -13 -3 -17 -26 -17 -33 0
-51 26 -24 33 29 8 47 2 50 -16z"/>
<path d="M2285 3710 c-3 -5 -1 -10 4 -10 6 0 11 5 11 10 0 6 -2 10 -4 10 -3 0
-8 -4 -11 -10z"/>
<path d="M1988 3223 c6 -2 18 -2 25 0 6 3 1 5 -13 5 -14 0 -19 -2 -12 -5z"/>
<path d="M2008 3173 c6 -2 18 -2 25 0 6 3 1 5 -13 5 -14 0 -19 -2 -12 -5z"/>
<path d="M3581 3991 c-7 -5 -9 -11 -5 -14 5 -3 15 1 22 9 14 16 5 18 -17 5z"/>
<path d="M3096 3982 c-4 -7 4 -10 21 -9 19 1 28 -3 31 -15 2 -13 -3 -18 -17
-18 -11 0 -23 4 -26 10 -4 6 -12 6 -23 1 -25 -14 -56 -24 -64 -23 -5 1 -8 -4
-9 -10 0 -7 -2 -22 -4 -33 -6 -33 39 -117 88 -164 39 -38 44 -48 36 -65 -9
-19 -9 -20 4 -3 14 17 57 24 57 9 0 -13 70 -34 112 -34 74 1 100 60 58 130
-11 18 -18 37 -15 42 3 4 1 10 -5 12 -6 2 -6 8 1 18 8 13 11 13 23 -2 21 -29
30 -21 11 10 -27 41 -84 90 -138 118 -54 28 -131 42 -141 26z m152 -51 c44
-23 52 -35 27 -45 -21 -8 -54 14 -48 31 3 7 0 13 -6 13 -6 0 -11 -4 -11 -9 0
-5 -13 -5 -29 2 -20 7 -27 16 -24 28 5 19 13 18 91 -20z m-133 -30 c-2 -13 -9
-27 -15 -31 -7 -4 -11 -11 -10 -16 1 -5 -9 -12 -22 -16 -16 -4 -18 -6 -5 -7
18 -1 24 -21 6 -21 -8 0 -8 -5 1 -15 10 -12 10 -15 -3 -15 -9 0 -18 8 -22 19
-7 22 -3 81 5 81 4 0 7 7 7 15 0 21 -17 19 -18 -2 -1 -10 -1 -21 0 -25 0 -5
-4 -8 -10 -8 -6 0 -9 10 -7 22 3 25 42 48 75 46 18 -2 22 -7 18 -27z m79 -2
c5 -5 7 -11 5 -14 -8 -7 -69 18 -69 28 0 11 51 0 64 -14z m-9 -31 c7 -8 2 -9
-15 -4 -14 3 -31 6 -37 6 -7 0 -13 5 -13 11 0 13 50 3 65 -13z m65 1 c24 -18
27 -24 17 -40 -13 -21 -32 -26 -24 -6 3 7 -5 13 -19 13 l-24 2 22 -17 c18 -15
19 -20 8 -40 -15 -29 -70 -87 -70 -75 0 5 -5 2 -10 -6 -7 -11 -10 -7 -10 18 0
24 3 31 13 26 8 -5 8 -2 -2 9 -15 19 -9 21 22 7 l22 -11 -22 17 c-19 13 -20
19 -10 37 23 42 44 66 51 59 4 -3 4 1 0 11 -8 23 1 21 36 -4z m81 2 c18 -16
18 -19 4 -31 -14 -11 -19 -10 -37 7 -35 36 -4 59 33 24z m-173 -20 c11 -7 10
-16 -7 -49 -12 -23 -21 -48 -21 -57 0 -10 -7 -15 -17 -13 -13 2 -18 13 -19 38
-1 72 25 106 64 81z m166 -61 c15 -22 29 -53 32 -69 5 -24 1 -31 -29 -50 -23
-14 -49 -21 -71 -19 -44 3 -46 13 -5 33 36 19 91 66 84 73 -2 2 -18 -7 -36
-22 -30 -25 -32 -26 -45 -9 -12 17 -13 17 -8 -3 6 -22 -18 -40 -37 -29 -5 4
-6 -1 -3 -9 3 -9 1 -16 -5 -16 -25 0 -21 30 8 58 17 16 31 35 31 43 0 8 9 20
20 26 16 11 21 9 35 -9 8 -13 15 -17 15 -11 0 6 -7 16 -15 23 -16 14 -20 30
-6 30 4 0 20 -18 35 -40z m46 -114 c0 -3 -4 -8 -10 -11 -5 -3 -10 -1 -10 4 0
6 5 11 10 11 6 0 10 -2 10 -4z m-30 -21 c0 -8 -7 -15 -15 -15 -13 0 -14 3 -3
15 16 18 18 18 18 0z"/>
<path d="M3180 3816 c0 -3 9 -10 20 -16 11 -6 20 -8 20 -6 0 3 -9 10 -20 16
-11 6 -20 8 -20 6z"/>
<path d="M3180 3786 c0 -2 7 -7 16 -10 8 -3 12 -2 9 4 -6 10 -25 14 -25 6z"/>
<path d="M3270 3781 c0 -5 7 -15 17 -22 15 -13 15 -12 4 9 -12 23 -21 28 -21
13z"/>
<path d="M3752 3945 c0 -16 2 -22 5 -12 2 9 2 23 0 30 -3 6 -5 -1 -5 -18z"/>
<path d="M4021 3944 c0 -11 3 -14 6 -6 3 7 2 16 -1 19 -3 4 -6 -2 -5 -13z"/>
<path d="M4570 3949 c0 -5 5 -7 10 -4 6 3 10 8 10 11 0 2 -4 4 -10 4 -5 0 -10
-5 -10 -11z"/>
<path d="M4310 3939 c0 -5 -5 -7 -11 -3 -19 12 7 -29 33 -51 l23 -20 -23 26
c-14 16 -20 32 -16 42 3 10 3 17 0 17 -3 0 -6 -5 -6 -11z"/>
<path d="M2287 3902 c-23 -25 -21 -32 7 -30 21 2 23 5 13 17 -9 11 -9 13 0 8
6 -4 15 -2 19 4 4 7 3 9 -4 5 -5 -3 -12 -1 -14 5 -2 6 -11 2 -21 -9z"/>
<path d="M4023 3840 c0 -47 2 -66 4 -42 2 23 2 61 0 85 -2 23 -4 4 -4 -43z"/>
<path d="M2930 3878 c-36 -59 -44 -101 -26 -136 9 -17 16 -37 16 -44 1 -16 56
-78 70 -78 5 0 10 -6 10 -14 0 -8 28 -28 62 -45 63 -32 98 -39 98 -20 0 6 -9
8 -20 4 -11 -4 -20 -2 -20 4 0 14 40 14 60 0 11 -8 12 -12 2 -16 -6 -2 -10 -9
-6 -14 3 -5 -6 -14 -20 -21 -14 -6 -26 -15 -26 -19 0 -8 -47 3 -77 19 -10 6
-25 7 -31 3 -8 -5 2 -14 29 -26 55 -25 132 -24 192 3 54 24 173 138 182 175
10 38 2 90 -15 95 -12 4 -13 3 -2 -10 10 -13 10 -19 -3 -32 -14 -14 -14 -16
-2 -16 10 0 13 -7 10 -20 -3 -11 -10 -17 -16 -13 -6 4 -8 0 -5 -8 3 -8 -5 -28
-18 -44 -22 -28 -28 -30 -92 -30 -58 0 -78 5 -135 34 -73 37 -143 104 -176
169 -26 51 -28 107 -3 121 16 10 16 10 -1 11 -9 0 -26 -15 -37 -32z m23 -95
c4 -3 2 -12 -5 -20 -6 -8 -7 -13 -2 -11 11 4 94 -85 94 -101 0 -6 -11 -11 -25
-11 -14 0 -25 4 -25 10 0 5 8 7 18 4 12 -4 9 2 -9 18 -14 13 -23 30 -21 38 3
8 -4 4 -15 -9 l-20 -24 -6 22 c-4 17 -2 21 9 17 8 -3 14 -1 14 4 0 5 -9 11
-20 15 -17 5 -20 20 -11 53 2 5 18 2 24 -5z m37 -112 c0 -17 -18 -21 -24 -6
-3 9 0 15 9 15 8 0 15 -4 15 -9z m140 -76 c11 -3 20 -11 20 -17 0 -5 -6 -8
-14 -5 -8 3 -16 2 -18 -3 -4 -12 -78 7 -78 20 0 6 -7 10 -15 10 -8 0 -15 8
-14 18 0 11 2 13 6 4 4 -10 9 -8 20 8 l14 21 30 -25 c16 -14 38 -27 49 -31z
m118 -45 c1 -4 14 -5 27 -2 16 3 25 0 25 -8 0 -9 -11 -11 -36 -7 -20 4 -46 1
-57 -4 -14 -8 -18 -8 -12 0 4 7 1 18 -5 26 -11 13 -7 14 21 8 19 -3 35 -9 37
-13z m-13 -50 c18 -8 17 -9 -7 -9 -15 -1 -39 -6 -55 -11 l-28 -10 24 20 c25
22 35 23 66 10z"/>
<path d="M3040 3621 c0 -6 4 -12 8 -15 5 -3 9 1 9 9 0 8 -4 15 -9 15 -4 0 -8
-4 -8 -9z"/>
<path d="M4429 3873 c-13 -21 -28 -46 -34 -55 -5 -10 -25 -38 -43 -63 -18 -25
-30 -45 -25 -45 11 1 137 189 131 196 -3 3 -16 -12 -29 -33z"/>
<path d="M4092 3875 c0 -16 2 -22 5 -12 2 9 2 23 0 30 -3 6 -5 -1 -5 -18z"/>
<path d="M2397 3878 c2 -5 22 -8 43 -8 21 0 41 3 43 8 3 4 -17 7 -43 7 -26 0
-46 -3 -43 -7z"/>
<path d="M2970 3830 c0 -5 7 -7 15 -4 8 4 15 8 15 10 0 2 -7 4 -15 4 -8 0 -15
-4 -15 -10z"/>
<path d="M3753 3818 c-2 -18 0 -20 7 -8 12 18 13 30 2 30 -4 0 -9 -10 -9 -22z"/>
<path d="M4476 3793 c-6 -14 -5 -15 5 -6 7 7 10 15 7 18 -3 3 -9 -2 -12 -12z"/>
<path d="M2585 3780 c-55 -11 -153 -49 -161 -62 -4 -6 -1 -16 7 -22 54 -41 61
-95 23 -176 -45 -96 -17 -182 77 -240 56 -34 58 -34 94 32 25 46 74 58 97 24
11 -16 10 -64 -2 -71 -26 -16 -6 -23 24 -9 59 28 120 177 97 235 l-10 24 0
-26 c-1 -35 -10 -41 -35 -24 -30 21 -34 19 -42 -20 -7 -41 -9 -41 -51 -15
l-33 20 -18 -36 -18 -35 -26 20 c-34 27 -42 26 -56 -4 -14 -30 -33 -32 -57 -5
-10 12 -25 18 -32 16 -16 -6 -17 16 -2 31 9 9 18 4 37 -18 l25 -31 20 36 20
35 33 -26 33 -25 17 36 17 35 32 -19 c18 -11 35 -20 38 -20 2 0 8 16 11 35 8
39 12 41 40 20 23 -17 36 -11 36 16 0 11 5 17 10 14 17 -11 32 47 28 109 -4
49 -9 63 -32 83 -43 36 -95 32 -141 -13 -33 -31 -35 -35 -14 -30 21 6 21 5 -3
-9 -16 -9 -28 -20 -28 -25 0 -6 9 -5 20 2 16 10 22 10 35 -3 15 -15 12 -18
-32 -37 -63 -27 -168 -40 -161 -21 3 8 11 13 17 12 26 -6 8 42 -29 78 l-39 38
37 6 c20 4 74 17 120 30 78 21 82 22 63 4 -11 -10 -26 -19 -34 -19 -7 0 -17
-4 -22 -9 -6 -5 -21 -12 -34 -16 -18 -5 -22 -4 -16 5 5 9 4 11 -3 6 -7 -4 -12
-13 -12 -21 0 -10 7 -11 39 -1 22 6 43 15 47 19 4 4 14 7 23 7 25 0 39 13 46
43 7 26 6 27 -36 26 -24 -1 -62 -5 -84 -9z m214 -106 c24 -31 27 -81 7 -110
-8 -11 -33 -29 -56 -39 -25 -11 -36 -21 -29 -26 7 -4 9 -15 5 -24 -5 -14 -9
-15 -21 -5 -8 7 -12 17 -8 23 4 7 0 8 -12 3 -62 -23 -220 -41 -230 -26 -3 6
-3 10 2 11 4 0 36 2 70 4 35 2 73 6 85 10 47 12 188 70 188 77 0 3 -16 16 -36
28 -19 12 -42 34 -51 47 -16 24 -16 26 2 39 29 21 61 17 84 -12z m-285 -49 c3
-8 1 -15 -4 -15 -6 0 -10 7 -10 15 0 8 2 15 4 15 2 0 6 -7 10 -15z m220 -21
c9 -3 16 -10 16 -14 0 -13 -91 -47 -154 -59 -33 -6 -63 -17 -68 -24 -6 -9 -8
-9 -8 1 0 6 -11 12 -25 12 -17 0 -23 4 -19 14 3 8 35 18 83 26 64 10 98 21
158 49 1 1 8 -2 17 -5z m99 -39 c-3 -9 -8 -14 -10 -11 -3 3 -2 9 2 15 9 16 15
13 8 -4z m-28 -55 c-5 -8 -11 -8 -21 1 -12 10 -12 14 -2 20 16 10 33 -5 23
-21z m-178 4 c-3 -3 -12 -4 -19 -1 -8 3 -5 6 6 6 11 1 17 -2 13 -5z m8 -54 c3
-6 -1 -13 -10 -16 -19 -8 -30 0 -20 15 8 14 22 14 30 1z m-102 -25 c-6 -17
-25 -15 -31 3 -2 7 5 12 17 12 14 0 19 -5 14 -15z m261 -7 c-6 -20 -5 -21 10
-9 9 8 19 12 22 9 10 -10 -70 -50 -111 -55 -38 -4 -41 -3 -43 21 -1 18 3 26
14 26 11 0 15 -6 11 -20 -6 -24 -7 -24 44 -4 29 12 37 19 27 25 -11 7 -10 11
2 19 24 16 32 12 24 -12z m-204 -63 c-12 -14 -10 -14 14 -5 42 16 65 11 27 -5
-34 -15 -136 -23 -148 -11 -3 3 12 6 35 6 22 0 44 5 48 12 4 7 3 8 -4 4 -17
-10 -15 0 4 19 22 21 43 3 24 -20z m-102 6 c3 -8 -1 -12 -9 -9 -7 2 -15 10
-17 17 -3 8 1 12 9 9 7 -2 15 -10 17 -17z m315 -7 c-5 -14 -42 -34 -64 -34
-19 0 -8 20 19 34 36 20 53 20 45 0z m-199 -43 c13 -1 -15 -31 -30 -31 -7 0
-25 5 -39 12 -40 18 -11 26 69 19z m166 -16 c-7 -9 -15 -13 -19 -10 -3 3 1 10
9 15 21 14 24 12 10 -5z"/>
<path d="M3005 3760 c-3 -5 -2 -10 4 -10 5 0 13 5 16 10 3 6 2 10 -4 10 -5 0
-13 -4 -16 -10z"/>
<path d="M3385 3760 c-3 -6 1 -7 9 -4 18 7 21 14 7 14 -6 0 -13 -4 -16 -10z"/>
<path d="M3754 3635 c0 -71 1 -99 3 -62 2 37 2 96 0 130 -2 34 -3 4 -3 -68z"/>
<path d="M2880 3709 c0 -24 5 -61 11 -82 13 -49 89 -130 113 -121 9 4 15 9 12
12 -3 2 0 14 6 26 10 19 8 18 -17 -4 -16 -14 -25 -20 -21 -13 3 6 -1 16 -9 21
-10 5 -13 15 -9 25 5 15 9 15 23 5 10 -8 8 -4 -4 10 -11 13 -21 19 -23 13 -2
-6 -8 -9 -13 -6 -5 4 -6 -1 -3 -9 3 -9 2 -16 -4 -16 -10 0 -22 32 -22 59 0 11
3 11 17 0 13 -11 13 -8 -2 12 -13 18 -22 23 -27 15 -5 -7 -8 -5 -8 6 0 9 -3
24 -7 34 -5 12 -3 15 6 9 11 -6 11 -3 1 16 -19 36 -20 36 -20 -12z"/>
<path d="M4383 3695 c-52 -55 -150 -185 -139 -185 3 0 24 26 48 58 38 52 82
103 131 155 10 10 17 20 15 23 -2 2 -27 -21 -55 -51z"/>
<path d="M4033 3695 c0 -27 2 -38 4 -22 2 15 2 37 0 50 -2 12 -4 0 -4 -28z"/>
<path d="M3057 3713 c-4 -3 -7 -11 -7 -17 0 -6 5 -5 12 2 6 6 9 14 7 17 -3 3
-9 2 -12 -2z"/>
<path d="M2495 3690 c11 -5 27 -9 35 -9 9 0 8 4 -5 9 -11 5 -27 9 -35 9 -9 0
-8 -4 5 -9z"/>
<path d="M4716 3674 c-5 -14 -4 -15 9 -4 17 14 19 20 6 20 -5 0 -12 -7 -15
-16z"/>
<path d="M4585 3647 c-32 -23 -115 -105 -115 -113 0 -7 144 118 148 128 5 12
1 10 -33 -15z"/>
<path d="M2670 3629 c0 -5 5 -7 10 -4 6 3 10 8 10 11 0 2 -4 4 -10 4 -5 0 -10
-5 -10 -11z"/>
<path d="M3575 3621 c-3 -5 -2 -12 3 -15 5 -3 9 1 9 9 0 17 -3 19 -12 6z"/>
<path d="M4659 3613 c-13 -16 -12 -17 4 -4 16 13 21 21 13 21 -2 0 -10 -8 -17
-17z"/>
<path d="M3216 3605 c-3 -8 -1 -15 3 -15 5 0 11 7 15 15 3 8 1 15 -3 15 -5 0
-11 -7 -15 -15z"/>
<path d="M3341 3604 c0 -11 3 -14 6 -6 3 7 2 16 -1 19 -3 4 -6 -2 -5 -13z"/>
<path d="M1971 3576 c-41 -8 -56 -16 -62 -33 -7 -18 -3 -23 23 -32 17 -6 32
-11 33 -11 1 0 2 7 2 16 0 11 -7 14 -22 12 -15 -3 -21 1 -22 14 -2 18 12 25
19 10 2 -5 16 -12 31 -16 24 -6 30 -3 35 16 4 17 9 9 19 -37 11 -47 11 -60 1
-67 -9 -5 -8 -8 6 -8 16 0 18 6 11 55 -7 56 -2 63 39 56 5 -1 13 4 17 11 6 9
9 7 9 -8 0 -12 3 -42 6 -68 6 -42 5 -46 -13 -46 -11 0 -38 -6 -60 -14 -22 -8
-46 -10 -53 -6 -10 6 -8 9 6 13 16 4 16 5 2 6 -10 0 -20 12 -24 26 -3 14 -10
25 -15 25 -6 0 -5 -8 1 -19 7 -14 6 -21 -3 -24 -9 -4 -9 -6 1 -6 6 -1 12 -7
12 -15 0 -8 -6 -16 -12 -19 -7 -2 -11 -7 -8 -10 7 -7 152 20 210 39 66 22 167
71 175 84 4 6 -2 20 -14 31 -27 25 -39 25 -16 -1 18 -20 18 -21 -1 -34 -17
-13 -19 -12 -22 15 -4 36 -22 28 -22 -10 0 -29 -16 -51 -37 -51 -8 0 -13 14
-13 39 0 43 -8 71 -20 71 -4 0 -4 -16 0 -34 7 -34 6 -35 -24 -39 l-31 -4 33
-1 c21 -1 32 -7 32 -17 0 -10 -11 -15 -32 -16 l-33 -1 30 -7 30 -7 -32 -5
c-32 -5 -33 -4 -34 30 -1 20 -3 48 -5 64 -2 18 2 27 11 27 19 0 28 -17 13 -23
-8 -3 -6 -6 4 -6 13 -1 17 5 14 22 -2 12 -8 21 -12 21 -5 -1 -24 -4 -41 -7
-18 -4 -33 -3 -33 2 0 11 -44 9 -109 -3z m74 -6 c3 -5 1 -10 -4 -10 -6 0 -11
5 -11 10 0 6 2 10 4 10 3 0 8 -4 11 -10z m-45 -9 c0 -6 -4 -13 -10 -16 -5 -3
-10 1 -10 9 0 9 5 16 10 16 6 0 10 -4 10 -9z"/>
<path d="M2223 3583 c-16 -6 -5 -33 13 -33 8 0 14 3 14 8 0 15 -15 29 -27 25z"/>
<path d="M4864 3581 c-62 -15 -73 -36 -19 -38 35 -1 85 -26 85 -42 0 -11 -115
-61 -139 -61 -10 0 -36 -12 -57 -27 -21 -14 -77 -44 -123 -65 l-84 -39 21 -21
21 -22 88 42 c119 56 137 59 157 31 32 -46 14 -115 -41 -155 -51 -37 -52 -35
-8 30 23 35 42 72 40 82 -2 29 -16 54 -28 54 -7 0 -7 -4 1 -12 22 -22 12 -62
-27 -114 -76 -100 -63 -119 36 -55 46 30 64 48 73 75 14 44 0 98 -33 121 -20
14 -18 16 54 48 l74 34 27 -80 c15 -44 30 -82 33 -85 13 -13 55 19 55 41 0 53
-70 226 -99 244 -25 16 -73 22 -107 14z m45 -22 c24 -9 39 -25 61 -70 32 -62
36 -79 20 -79 -5 0 -10 7 -10 15 0 8 -11 22 -25 31 -16 10 -24 23 -20 33 2 9
1 21 -3 27 -9 14 -54 39 -65 36 -5 -1 -6 2 -2 8 8 12 5 12 44 -1z m95 -75 c3
-8 2 -12 -4 -9 -6 3 -10 10 -10 16 0 14 7 11 14 -7z m-114 -39 c-7 -9 -15 -13
-18 -11 -2 3 -17 -1 -33 -10 -16 -8 -29 -11 -29 -7 0 8 65 40 84 42 5 1 3 -6
-4 -14z m-104 -40 c-22 -17 -46 -20 -46 -6 0 11 18 19 45 20 20 0 20 0 1 -14z
m259 -77 c2 -11 -2 -18 -11 -18 -8 0 -13 4 -10 8 3 5 -2 21 -10 37 -8 16 -11
37 -8 49 6 18 9 16 21 -19 8 -22 16 -48 18 -57z m-315 47 c0 -8 -147 -75 -163
-74 -6 0 6 7 28 16 22 9 42 19 45 22 7 9 51 29 88 40 1 1 2 -1 2 -4z"/>
<path d="M1062 3564 c-25 -17 -30 -65 -8 -83 7 -6 98 -19 202 -29 142 -13 196
-22 216 -36 21 -13 48 -68 121 -239 l95 -222 56 -3 c31 -2 56 0 56 3 0 3 -7
20 -16 37 l-16 31 44 -6 c23 -4 91 -9 149 -13 l105 -6 18 -89 18 -89 44 0 c24
0 44 3 44 8 0 4 -9 41 -20 82 -11 41 -20 77 -20 79 0 1 32 0 72 -4 l71 -7 -22
30 c-11 17 -24 44 -27 60 l-6 30 -127 7 c-69 4 -184 12 -255 19 l-129 11 -57
135 c-73 176 -83 193 -126 228 -45 37 -90 48 -264 62 -74 6 -149 13 -165 15
-19 3 -39 -1 -53 -11z m103 -18 c8 3 38 1 67 -5 29 -6 88 -13 131 -16 91 -6
133 -21 172 -61 16 -16 22 -20 14 -9 -13 18 -13 19 4 6 9 -7 17 -19 17 -27 0
-7 7 -20 16 -29 9 -9 14 -25 11 -35 -3 -11 -1 -18 4 -15 11 7 23 -40 14 -54
-3 -7 0 -8 9 -5 11 4 13 0 9 -18 -3 -16 -2 -19 4 -10 7 9 13 0 23 -30 8 -24
14 -45 15 -48 2 -10 29 -55 39 -66 18 -17 59 -24 174 -29 59 -3 132 -8 162
-12 30 -4 73 -6 95 -4 32 1 37 0 25 -9 -12 -9 -10 -10 12 -6 21 5 30 1 38 -14
8 -15 8 -20 -2 -21 -7 0 -4 -4 7 -9 18 -8 17 -9 -7 -9 -15 -1 -39 4 -53 9 -23
9 -26 8 -21 -6 4 -11 2 -15 -7 -11 -11 4 -10 -9 3 -66 10 -40 15 -79 11 -87
-4 -12 -6 -12 -9 3 -2 9 -8 17 -13 17 -6 0 -7 5 -4 10 3 6 2 10 -3 10 -15 0
-30 73 -21 99 6 15 5 20 -3 15 -6 -4 -16 -1 -22 7 -6 8 -27 16 -46 17 -19 1
-55 4 -80 7 -129 12 -169 10 -190 -13 -12 -12 -18 -22 -15 -22 3 0 3 -5 -1
-12 -5 -7 -12 -5 -22 8 -13 16 -14 17 -9 2 4 -10 3 -18 -2 -18 -9 0 -87 189
-85 207 1 7 -2 11 -6 8 -8 -5 -45 86 -45 110 0 6 -8 19 -17 29 -10 11 -18 25
-18 32 0 6 -7 17 -15 24 -8 7 -12 17 -8 23 4 6 1 7 -7 2 -10 -6 -12 -4 -7 9 4
9 3 15 -2 12 -15 -9 -61 18 -56 33 4 11 3 11 -9 2 -8 -7 -23 -10 -33 -7 -10 3
-57 8 -104 10 -47 3 -97 10 -111 15 -14 5 -36 7 -48 4 -18 -5 -21 -3 -15 8 5
8 4 11 0 6 -5 -4 -20 0 -34 9 l-26 17 25 -28 c23 -25 23 -27 3 -16 -28 14 -34
32 -16 53 11 12 21 14 44 8 17 -5 36 -7 44 -4z"/>
<path d="M2008 3073 c6 -2 18 -2 25 0 6 3 1 5 -13 5 -14 0 -19 -2 -12 -5z"/>
<path d="M2117 2941 c-4 -17 -3 -21 5 -13 5 5 8 16 6 23 -3 8 -7 3 -11 -10z"/>
<path d="M4596 3564 c-11 -8 -16 -14 -10 -14 13 0 39 18 34 24 -3 2 -14 -2
-24 -10z"/>
<path d="M2148 3523 c6 -2 18 -2 25 0 6 3 1 5 -13 5 -14 0 -19 -2 -12 -5z"/>
<path d="M3080 3520 c0 -5 -8 -7 -17 -4 -15 5 -15 3 1 -10 11 -9 25 -16 30
-15 6 0 5 3 -2 6 -10 4 -10 8 -1 19 8 10 8 14 0 14 -6 0 -11 -4 -11 -10z"/>
<path d="M4150 3510 c0 -11 2 -20 4 -20 2 0 6 9 9 20 3 11 1 20 -4 20 -5 0 -9
-9 -9 -20z"/>
<path d="M2068 3513 c6 -2 18 -2 25 0 6 3 1 5 -13 5 -14 0 -19 -2 -12 -5z"/>
<path d="M981 3494 c0 -11 3 -14 6 -6 3 7 2 16 -1 19 -3 4 -6 -2 -5 -13z"/>
<path d="M1993 3493 c9 -2 14 -9 11 -15 -4 -7 -2 -8 5 -4 15 10 4 26 -17 25
-15 -1 -15 -2 1 -6z"/>
<path d="M2078 3493 c7 -3 16 -2 19 1 4 3 -2 6 -13 5 -11 0 -14 -3 -6 -6z"/>
<path d="M1918 3473 c7 -3 16 -2 19 1 4 3 -2 6 -13 5 -11 0 -14 -3 -6 -6z"/>
<path d="M2078 3473 c6 -2 18 -2 25 0 6 3 1 5 -13 5 -14 0 -19 -2 -12 -5z"/>
<path d="M2984 3465 c-4 -8 -1 -22 6 -30 16 -19 -3 -45 -33 -45 -20 0 -20 0
-1 -21 40 -44 248 -168 261 -155 12 11 -19 36 -85 69 -70 34 -180 116 -140
103 9 -2 19 -2 22 2 11 11 47 9 43 -2 -2 -6 14 -20 36 -32 25 -13 36 -24 29
-28 -7 -4 -12 -3 -12 3 0 6 -7 7 -17 4 -11 -4 -14 -3 -9 5 4 7 1 12 -8 12 -9
0 -25 9 -36 20 -10 10 -22 15 -25 11 -6 -10 23 -30 119 -83 60 -33 71 -36 78
-23 6 10 17 13 32 9 30 -7 41 18 18 39 -24 20 -253 157 -264 157 -5 0 -11 -7
-14 -15z m80 -47 c-5 -7 -2 -8 6 -3 8 5 18 1 27 -10 7 -11 13 -15 13 -10 0 5
7 0 16 -11 8 -10 12 -13 8 -5 -8 16 81 -43 92 -61 4 -7 3 -8 -4 -4 -7 4 -12 2
-12 -3 0 -6 -5 -11 -11 -11 -5 0 -7 5 -3 12 5 8 2 9 -10 5 -9 -4 -15 -3 -12 1
2 4 -8 13 -24 20 -15 7 -39 23 -52 35 -13 12 -36 30 -51 40 -31 20 -28 43 4
27 11 -6 16 -16 13 -22z m91 -108 c3 -6 -1 -7 -9 -4 -18 7 -21 14 -7 14 6 0
13 -4 16 -10z"/>
<path d="M4430 3450 c-14 -11 -20 -20 -13 -20 11 0 43 26 43 36 0 7 -4 5 -30
-16z"/>
<path d="M2078 3453 c7 -3 16 -2 19 1 4 3 -2 6 -13 5 -11 0 -14 -3 -6 -6z"/>
<path d="M2253 3427 c-35 -24 -41 -37 -17 -37 8 0 13 4 10 9 -6 9 22 26 37 23
4 -1 7 3 7 9 0 5 5 7 12 3 7 -4 8 -3 4 4 -9 16 -15 14 -53 -11z"/>
<path d="M1930 3430 c12 -8 12 -10 1 -10 -8 0 -12 -2 -9 -5 3 -3 13 -2 22 1
14 5 15 9 4 15 -7 5 -17 9 -23 9 -5 0 -3 -5 5 -10z"/>
<path d="M2201 3421 c-8 -5 -9 -11 -3 -15 5 -3 12 1 16 9 6 17 6 18 -13 6z"/>
<path d="M2161 3403 c-1 -6 -4 -20 -7 -30 -5 -17 -5 -17 6 0 6 10 9 23 6 30
-3 9 -5 9 -5 0z"/>
<path d="M4366 3393 c-6 -14 -5 -15 5 -6 7 7 10 15 7 18 -3 3 -9 -2 -12 -12z"/>
<path d="M2083 3381 c-10 -16 -9 -18 7 -14 11 3 16 11 13 19 -7 18 -6 18 -20
-5z"/>
<path d="M2869 3365 c-57 -31 -83 -139 -56 -230 15 -47 18 -48 225 -65 110 -9
147 -9 158 1 22 18 17 26 -19 33 -79 15 -336 178 -337 214 0 20 12 14 57 -30
24 -23 43 -37 43 -30 0 7 -6 12 -12 12 -9 0 -8 3 2 9 19 13 32 3 25 -18 -7
-23 44 -53 68 -40 23 13 37 3 37 -26 0 -35 27 -38 65 -8 38 30 39 44 1 20 -27
-18 -36 -13 -36 19 0 34 -105 101 -145 93 l-30 -7 33 -1 c24 -1 32 -5 32 -20
0 -11 3 -26 6 -35 3 -9 1 -16 -5 -16 -6 0 -11 14 -11 30 0 30 -1 31 -36 24
-25 -4 -35 -3 -31 4 4 5 0 12 -8 16 -19 7 -19 17 0 42 14 18 14 18 8 -3 -5
-20 -1 -23 26 -23 35 0 39 10 13 33 -22 20 -39 21 -73 2z m3 -27 c-7 -7 -12
-8 -12 -2 0 6 3 14 7 17 3 4 9 5 12 2 2 -3 -1 -11 -7 -17z m78 6 c0 -2 -9 -4
-21 -4 -11 0 -18 4 -14 10 5 8 35 3 35 -6z m73 -67 c4 3 7 2 7 -4 0 -13 -25
-24 -34 -16 -3 4 -6 16 -6 27 1 20 2 20 14 4 7 -10 16 -15 19 -11z m-97 -64
c59 -44 113 -75 234 -132 25 -11 24 -11 -5 -6 -48 10 -153 62 -220 110 -34 24
-66 41 -70 37 -5 -4 -5 -2 -1 5 3 6 -2 18 -12 25 -10 7 -22 20 -27 28 -11 17
-12 18 101 -67z m152 5 c6 -23 9 -44 7 -46 -2 -2 -9 14 -15 37 -10 38 -12 40
-36 31 -38 -15 -53 -10 -19 5 45 21 52 18 63 -27z m-227 10 c1 -7 1 -15 1 -18
0 -3 8 -7 19 -7 23 -2 85 -52 81 -66 -2 -5 4 -7 13 -4 8 4 15 2 15 -3 0 -4 13
-11 30 -15 51 -11 42 -22 -13 -14 -29 3 -55 5 -59 2 -4 -2 -26 2 -49 9 -33 9
-45 19 -56 46 -10 23 -11 38 -4 46 7 9 7 16 -1 24 -9 9 -8 12 5 12 9 0 18 -6
18 -12z"/>
<path d="M2887 3179 c7 -7 15 -10 18 -7 3 3 -2 9 -12 12 -14 6 -15 5 -6 -5z"/>
<path d="M2894 3144 c-18 -14 -18 -15 4 -4 12 6 22 13 22 15 0 8 -5 6 -26 -11z"/>
<path d="M1876 3355 c-3 -9 -11 -13 -17 -9 -7 4 -9 3 -6 -4 4 -6 25 -8 50 -5
47 6 76 24 31 19 -16 -1 -34 1 -40 6 -7 5 -14 2 -18 -7z"/>
<path d="M2620 3264 c-54 -81 -55 -84 -40 -84 6 0 10 7 10 16 0 11 6 14 22 8
19 -6 21 -5 11 8 -9 10 -9 18 -2 25 5 5 18 25 28 43 10 19 24 36 32 38 11 3
11 1 -1 -7 -10 -7 -11 -11 -2 -11 6 0 12 -7 12 -16 0 -10 -6 -14 -14 -11 -11
4 -13 1 -9 -10 5 -12 3 -14 -8 -8 -11 6 -12 5 -2 -5 9 -10 10 -17 1 -27 -7 -9
-8 -17 -1 -24 7 -7 17 6 32 40 11 27 21 56 21 63 0 15 -19 38 -32 38 -4 0 -30
-34 -58 -76z"/>
<path d="M4300 3331 c0 -6 4 -13 10 -16 6 -3 7 1 4 9 -7 18 -14 21 -14 7z"/>
<path d="M4448 3316 c-25 -18 -23 -23 12 -30 17 -3 42 -17 57 -32 24 -24 25
-30 20 -95 l-6 -70 71 38 c77 41 96 63 55 63 -16 0 -51 24 -103 70 -43 39 -81
70 -84 70 -3 0 -13 -7 -22 -14z m167 -145 c19 -12 12 -11 -30 4 l-20 8 20 -16
c18 -15 19 -16 2 -17 -12 0 -16 -4 -11 -12 4 -8 3 -9 -2 -5 -5 5 -9 24 -10 43
-2 33 -1 34 14 21 9 -8 26 -20 37 -26z"/>
<path d="M3852 3270 c-17 -28 -15 -36 6 -17 17 15 19 15 36 -5 17 -20 17 -21
-4 -42 l-21 -21 -20 24 c-22 26 -25 9 -5 -28 l13 -23 31 31 c37 36 37 34 15
72 -20 34 -34 36 -51 9z"/>
<path d="M4180 3260 l-31 -29 18 -31 c10 -18 41 -62 69 -99 47 -63 49 -69 33
-80 -27 -16 -31 -14 -19 10 20 37 3 31 -19 -6 -11 -20 -21 -38 -21 -41 0 -2
26 -4 59 -4 32 0 73 -5 90 -11 25 -9 39 -9 59 2 15 7 34 13 42 14 8 0 14 8 12
17 -1 10 4 30 11 45 21 41 39 137 31 168 -4 18 -18 32 -38 40 -71 29 -70 29
-110 -30 -21 -30 -41 -55 -45 -55 -3 1 -23 28 -44 60 -20 33 -44 60 -51 60 -8
0 -28 -13 -46 -30z m58 -20 c3 -7 0 -10 -6 -6 -6 3 -13 2 -16 -3 -4 -5 2 -8
11 -6 23 3 53 -23 53 -46 0 -10 5 -21 12 -25 7 -5 8 -3 3 7 -8 12 -6 12 8 0 9
-7 14 -18 10 -24 -3 -6 -1 -7 5 -3 7 4 20 -6 32 -26 11 -18 20 -27 20 -20 0 8
-9 27 -21 43 -17 24 -18 33 -9 44 7 8 18 15 24 14 7 0 6 -2 -1 -6 -7 -2 -13
-10 -13 -16 0 -6 11 0 25 13 24 23 36 58 15 45 -6 -4 -7 -11 -4 -17 4 -7 2 -8
-4 -4 -9 5 -7 14 4 32 18 26 29 32 21 10 -6 -14 21 -32 31 -21 3 3 0 5 -6 5
-7 0 -12 4 -12 8 0 17 50 6 65 -15 13 -19 13 -23 0 -37 -19 -19 -19 -30 0 -22
8 3 15 1 15 -5 0 -27 -24 -49 -70 -64 -27 -9 -50 -21 -50 -25 0 -5 19 -3 42 6
22 8 43 12 45 10 2 -2 1 -16 -3 -30 -4 -18 -11 -25 -21 -22 -8 3 -11 1 -8 -4
12 -20 -7 -31 -22 -13 -8 10 -12 12 -8 5 4 -7 1 -19 -5 -27 -15 -18 -31 -20
-25 -2 4 9 -8 11 -45 9 -57 -4 -68 13 -20 29 17 6 30 16 30 21 0 6 -6 6 -15
-2 -24 -20 -38 -1 -20 27 16 24 16 26 0 42 -16 15 -17 15 -6 -6 21 -41 -18
-43 -40 -1 -9 16 -8 19 3 12 11 -6 11 -5 -1 9 -7 9 -17 14 -22 11 -5 -2 -11 7
-15 21 -3 13 -10 22 -15 19 -5 -3 -6 3 -2 12 4 12 3 15 -6 10 -9 -6 -12 -1 -9
15 5 38 36 50 46 19z"/>
<path d="M4449 3193 c-13 -14 -39 -32 -56 -39 -53 -23 -32 -31 22 -9 26 10 76
63 66 70 -5 2 -19 -7 -32 -22z"/>
<path d="M3441 3258 c17 -33 17 -33 39 -13 29 26 25 35 -15 35 -34 0 -35 -1
-24 -22z"/>
<path d="M3561 3264 c10 -12 14 -12 21 -2 6 9 7 6 3 -9 -9 -32 8 -35 26 -4
l16 27 -39 1 c-34 2 -38 0 -27 -13z"/>
<path d="M2450 3240 c-62 -10 -120 -36 -152 -67 -22 -21 -28 -36 -28 -67 0
-51 32 -105 70 -119 17 -6 30 -17 30 -23 0 -21 53 -76 87 -90 71 -30 167 -9
220 48 52 56 78 161 51 211 -24 46 -68 62 -68 26 0 -16 -4 -19 -17 -14 -33 14
-110 18 -117 6 -4 -6 -18 -11 -30 -11 -29 0 -65 -65 -47 -83 8 -8 11 -6 11 9
1 35 62 86 103 83 7 0 2 -4 -10 -9 -42 -17 -24 -81 22 -79 20 0 20 0 -1 9 -12
4 -24 18 -27 29 -7 27 35 40 60 20 13 -11 15 -11 9 -1 -6 11 0 12 27 8 22 -4
39 -1 43 6 5 7 3 8 -6 3 -9 -5 -11 -4 -6 4 6 9 11 9 21 1 10 -8 13 -30 11 -73
-3 -51 -7 -64 -30 -83 -30 -27 -33 -36 -8 -27 9 4 -1 -10 -22 -30 -30 -29 -42
-35 -52 -26 -11 9 -14 8 -14 -4 0 -13 -10 -14 -57 -10 -31 2 -65 10 -75 17
-16 12 -17 15 -3 26 16 14 11 31 -8 25 -7 -2 -25 7 -42 21 -16 15 -22 24 -13
21 12 -4 15 -2 12 8 -3 8 -12 11 -19 9 -7 -3 -16 -1 -19 5 -4 6 -14 7 -23 4
-10 -4 -14 -2 -10 4 4 6 0 14 -9 17 -8 3 -12 11 -8 17 3 6 0 16 -7 21 -10 7
-8 8 10 5 23 -6 23 -6 4 16 -22 24 -24 53 -4 49 7 -1 10 2 7 7 -10 16 38 22
50 6 6 -8 15 -15 19 -15 4 0 2 7 -5 15 -10 12 -10 18 0 30 13 16 45 21 36 6
-8 -12 20 -22 41 -14 15 6 15 7 -2 13 -17 6 -17 7 3 12 12 4 20 2 17 -2 -3 -5
-1 -11 5 -15 5 -3 10 1 10 10 0 9 5 13 10 10 6 -3 10 -2 10 4 0 6 7 8 16 4 12
-4 0 -16 -45 -40 -33 -19 -61 -41 -61 -48 0 -7 -7 -18 -15 -25 -17 -14 -21
-35 -5 -25 6 3 10 -3 10 -14 0 -11 3 -22 8 -25 4 -2 6 12 4 32 -4 44 27 80 79
91 28 6 80 54 68 65 -11 9 -78 13 -119 6z m157 -96 c-3 -3 -12 -4 -19 -1 -8 3
-5 6 6 6 11 1 17 -2 13 -5z m-167 -199 c5 3 10 4 10 1 0 -3 -10 -11 -22 -17
-13 -6 -20 -8 -16 -4 4 5 2 15 -5 24 -10 14 -10 14 5 3 9 -8 22 -11 28 -7z"/>
<path d="M3100 3230 c0 -5 7 -10 15 -10 8 0 15 5 15 10 0 6 -7 10 -15 10 -8 0
-15 -4 -15 -10z"/>
<path d="M3355 3210 c-34 -36 -48 -38 -63 -7 -10 20 -11 19 -11 -13 0 -19 3
-40 7 -46 11 -17 164 -44 250 -44 42 0 106 6 141 14 54 11 62 11 46 0 -10 -8
-40 -17 -67 -20 -26 -4 -48 -10 -48 -13 0 -10 -189 7 -250 23 -30 8 -57 12
-59 10 -3 -2 10 -25 27 -49 35 -50 38 -56 20 -50 -7 2 -114 11 -238 20 -124 8
-253 18 -287 21 l-63 6 0 -28 c0 -16 -6 -41 -14 -55 l-14 -26 72 -7 c39 -3
117 -9 174 -12 l102 -7 0 -42 0 -43 46 -4 46 -3 -6 42 c-4 31 -2 43 7 43 6 0
192 -14 412 -30 483 -36 461 -35 468 -10 5 18 14 20 105 20 96 0 101 -1 107
-22 20 -71 26 -78 65 -78 34 0 39 4 49 31 16 47 14 74 -9 94 -16 15 -67 21
-322 41 -167 13 -325 24 -353 24 l-50 0 32 25 c36 28 67 77 77 117 l6 27 -37
-16 c-82 -34 -344 -26 -412 13 l-26 15 35 -7 c19 -3 32 -3 28 1 -7 7 32 45 45
45 3 0 11 -16 17 -35 16 -47 57 -49 93 -4 l24 31 22 -31 c12 -17 26 -31 31
-31 5 0 -5 20 -22 45 l-32 45 -34 -40 c-18 -22 -38 -40 -43 -40 -6 0 -19 20
-30 45 -11 25 -23 45 -28 45 -4 0 -20 -13 -36 -30z m142 -143 c80 -2 102 -5
100 -16 -1 -7 7 -19 19 -27 18 -12 21 -12 21 1 0 9 -6 14 -14 11 -7 -3 -13 1
-13 9 0 7 15 17 33 20 17 4 35 13 39 19 5 8 11 7 20 -2 7 -8 9 -12 3 -10 -11
3 -55 -37 -55 -51 0 -6 -10 -17 -22 -25 -22 -16 -15 -21 20 -17 6 1 12 -2 12
-6 0 -4 15 -8 33 -9 17 0 79 -4 137 -9 58 -5 114 -8 125 -7 10 1 32 -2 47 -7
19 -7 28 -7 28 0 0 6 5 7 12 3 6 -4 32 -7 57 -7 l46 1 -40 -8 c-22 -4 -43 -6
-47 -3 -5 2 -8 -1 -8 -7 0 -19 -24 -37 -45 -33 -11 1 -69 5 -130 8 -60 3 -128
8 -150 11 -56 7 -189 16 -262 18 -33 0 -56 4 -51 7 6 4 -17 6 -50 5 -33 0 -58
2 -56 5 2 3 -24 5 -56 3 -39 -1 -60 2 -60 10 0 6 -5 4 -10 -4 -9 -13 -10 -13
-10 0 -1 8 -10 -2 -21 -23 -11 -21 -17 -42 -14 -46 2 -5 -1 -11 -9 -14 -8 -3
-17 2 -21 11 -3 9 -2 18 4 20 5 2 7 10 4 19 -5 12 -3 14 7 8 8 -5 11 -4 6 3
-4 6 -14 8 -23 5 -11 -4 -14 -3 -9 5 7 11 -11 17 -41 13 -7 -1 -13 2 -13 6 0
4 -49 9 -108 11 -138 3 -154 7 -150 35 4 26 30 29 188 15 117 -9 248 -19 298
-21 23 -1 31 -6 27 -16 -4 -11 -3 -11 9 -2 8 7 19 10 25 7 12 -8 61 14 61 26
0 5 -5 6 -11 2 -7 -4 -10 -1 -7 7 3 8 -4 26 -14 42 l-19 27 28 -11 c15 -6 74
-11 130 -12z m828 -151 c29 -2 45 -20 40 -46 -5 -28 -10 -33 -34 -37 -12 -1
-24 10 -39 37 -14 26 -17 40 -9 40 8 0 6 4 -3 11 -12 9 -11 9 5 4 11 -4 29 -8
40 -9z"/>
<path d="M3556 3024 c-11 -8 -16 -14 -10 -14 13 0 39 18 34 24 -3 2 -14 -2
-24 -10z"/>
<path d="M3410 2996 c0 -2 7 -7 16 -10 8 -3 12 -2 9 4 -6 10 -25 14 -25 6z"/>
<path d="M3493 2993 c9 -2 23 -2 30 0 6 3 -1 5 -18 5 -16 0 -22 -2 -12 -5z"/>
<path d="M3738 2913 c7 -3 16 -2 19 1 4 3 -2 6 -13 5 -11 0 -14 -3 -6 -6z"/>
<path d="M4020 2909 c0 -5 5 -7 10 -4 6 3 10 8 10 11 0 2 -4 4 -10 4 -5 0 -10
-5 -10 -11z"/>
<path d="M4303 2885 c0 -8 4 -12 9 -9 5 3 6 10 3 15 -9 13 -12 11 -12 -6z"/>
<path d="M3860 3226 c0 -9 5 -16 10 -16 6 0 10 4 10 9 0 6 -4 13 -10 16 -5 3
-10 -1 -10 -9z"/>
<path d="M2148 3223 c7 -3 16 -2 19 1 4 3 -2 6 -13 5 -11 0 -14 -3 -6 -6z"/>
<path d="M1753 3205 c0 -8 4 -12 9 -9 5 3 6 10 3 15 -9 13 -12 11 -12 -6z"/>
<path d="M3025 3200 c3 -5 8 -10 11 -10 2 0 4 5 4 10 0 6 -5 10 -11 10 -5 0
-7 -4 -4 -10z"/>
<path d="M3176 3185 c8 -37 14 -45 14 -19 0 10 -5 26 -10 34 -8 11 -9 7 -4
-15z"/>
<path d="M3200 3191 c0 -5 5 -11 11 -13 8 -3 6 -10 -5 -21 -23 -22 -36 -22
-36 2 0 28 -13 33 -39 15 -23 -17 -20 -34 7 -33 11 0 12 2 4 6 -6 2 -10 9 -6
14 10 16 23 10 26 -13 2 -13 10 -23 18 -23 8 0 18 -4 21 -9 13 -18 29 6 29 45
0 28 -4 39 -15 39 -8 0 -15 -4 -15 -9z"/>
<path d="M2078 3183 c6 -2 18 -2 25 0 6 3 1 5 -13 5 -14 0 -19 -2 -12 -5z"/>
<path d="M3372 3178 c-18 -18 -15 -28 8 -28 11 0 20 5 20 11 0 5 -5 7 -12 3
-8 -5 -9 -2 -5 9 8 20 5 21 -11 5z"/>
<path d="M3508 3156 c-16 -23 -16 -23 18 -24 22 -1 32 2 28 9 -3 6 -13 8 -21
5 -11 -4 -13 -1 -8 14 8 26 4 25 -17 -4z"/>
<path d="M3650 3160 c-11 -21 -8 -23 27 -14 13 4 20 10 18 15 -3 4 -13 5 -22
2 -11 -4 -14 -3 -9 5 4 7 5 12 2 12 -3 0 -10 -9 -16 -20z"/>
<path d="M2464 2995 c39 -36 75 -51 98 -42 7 3 1 6 -13 6 -26 1 -76 33 -92 58
-4 7 -13 13 -20 13 -7 0 5 -16 27 -35z"/>
<path d="M2595 2945 c-25 -12 -26 -14 -5 -9 28 7 60 23 45 23 -5 0 -23 -6 -40
-14z"/>
<path d="M2456 2908 c3 -5 10 -6 15 -3 13 9 11 12 -6 12 -8 0 -12 -4 -9 -9z"/>
<path d="M1790 2635 l0 -235 45 0 45 0 0 99 c0 84 3 102 21 125 16 20 29 26
59 26 59 0 70 -23 70 -147 l0 -103 45 0 45 0 0 123 c0 105 -3 127 -20 155 -39
63 -130 78 -192 32 l-28 -21 0 91 0 90 -45 0 -45 0 0 -235z m67 162 c0 -12 -6
-25 -12 -29 -6 -5 -5 -8 3 -8 15 0 14 -68 -2 -90 -9 -13 -8 -13 5 -3 9 7 19
10 22 6 4 -3 13 0 22 7 8 7 15 9 15 5 0 -4 6 -2 13 4 8 6 36 13 63 16 45 5 51
3 78 -26 23 -24 30 -41 30 -75 1 -24 -3 -44 -9 -44 -5 0 -5 -4 2 -8 7 -4 12
-32 12 -65 0 -52 -2 -57 -23 -57 -21 0 -22 4 -21 85 0 47 3 85 8 85 4 0 -7 16
-25 36 -18 20 -32 41 -30 46 1 5 -5 5 -16 -1 -10 -5 -24 -6 -32 -1 -9 6 -24 2
-42 -11 -15 -11 -33 -17 -39 -13 -8 5 -9 3 -4 -6 4 -7 2 -16 -5 -20 -9 -5 -13
-37 -14 -96 -2 -87 -9 -119 -25 -109 -11 6 -18 204 -11 310 2 28 0 61 -5 75
-7 22 -6 23 9 11 15 -12 16 -12 9 5 -6 17 -5 17 9 6 9 -7 16 -23 15 -35z"/>
<path d="M1461 2818 c-75 -37 -94 -121 -41 -182 23 -26 45 -38 98 -52 120 -31
143 -53 102 -94 -29 -29 -103 -27 -164 4 l-47 24 -14 -35 c-8 -19 -13 -39 -10
-43 3 -5 30 -18 61 -29 168 -63 331 35 272 163 -16 35 -45 52 -130 76 -87 24
-117 50 -94 84 11 17 24 21 72 21 34 0 72 -7 91 -17 l32 -16 14 43 15 43 -50
16 c-72 23 -153 21 -207 -6z m152 -10 c9 0 17 -3 17 -7 0 -4 10 -7 22 -7 14 1
24 -6 26 -16 2 -10 -2 -18 -8 -18 -6 0 -9 3 -7 8 5 7 -8 9 -78 14 -19 1 -35 5
-35 9 0 3 -12 4 -26 1 -19 -3 -22 -7 -12 -13 10 -7 10 -9 -3 -9 -9 0 -22 -7
-29 -15 -7 -8 -17 -15 -22 -15 -6 0 -4 7 3 16 12 15 24 52 12 41 -2 -3 -5 -9
-4 -14 0 -4 -10 -18 -22 -31 -13 -14 -16 -22 -8 -20 7 2 16 -3 19 -11 2 -8 0
-11 -5 -8 -5 3 -10 0 -10 -7 0 -8 6 -12 13 -9 6 2 15 -1 20 -8 4 -7 3 -10 -3
-6 -6 4 -17 -1 -24 -11 -12 -15 -12 -16 2 -5 12 10 22 8 52 -13 21 -14 42 -22
47 -19 6 3 10 -2 10 -12 0 -15 2 -16 10 -3 7 10 13 11 18 5 4 -6 18 -12 31
-12 13 -1 32 -10 43 -20 11 -10 22 -17 24 -15 2 1 4 -1 5 -5 1 -5 5 -15 10
-24 11 -21 -10 -89 -28 -89 -7 0 -12 -3 -12 -7 4 -22 -3 -25 -16 -7 -11 14
-14 15 -9 2 7 -21 -25 -32 -91 -29 -70 2 -106 11 -99 23 4 6 -2 8 -17 3 -16
-4 -20 -3 -11 3 8 5 13 12 13 16 -1 6 5 6 24 0 76 -24 172 -33 160 -15 -3 5 4
12 15 16 11 3 20 13 20 21 0 8 3 13 8 11 4 -3 8 8 9 23 3 35 -32 59 -120 84
-37 11 -55 21 -51 28 4 7 3 8 -5 4 -20 -13 -47 3 -64 39 -9 19 -12 37 -8 40 5
3 8 16 7 30 -2 13 0 22 4 20 4 -3 15 6 23 18 10 15 24 23 39 22 13 -1 32 1 43
6 11 4 29 5 40 2 11 -4 28 -6 38 -5z"/>
<path d="M3318 2765 c4 -43 3 -45 -22 -45 -22 0 -26 -4 -26 -30 0 -27 2 -30
25 -24 l25 6 0 -114 c0 -128 10 -150 70 -163 36 -8 90 11 90 30 0 32 -12 45
-31 34 -27 -14 -58 -2 -64 24 -3 12 -5 58 -3 102 l3 80 43 -3 c41 -3 42 -3 42
27 0 30 -1 31 -46 31 l-47 0 5 45 6 45 -37 0 -36 0 3 -45z m46 -37 c4 -16 13
-28 22 -28 8 0 12 -5 9 -11 -4 -6 -14 -8 -22 -5 -8 3 -11 2 -8 -3 10 -17 -13
-21 -40 -7 -27 14 -27 14 -6 28 11 7 21 22 21 34 0 21 13 42 16 27 1 -4 5 -20
8 -35z m-4 -163 c0 -47 0 -87 0 -90 -1 -12 27 -32 60 -42 35 -12 34 -12 -14
-7 -44 4 -78 14 -47 14 8 0 7 5 -4 16 -13 13 -16 34 -14 105 2 49 6 89 11 89
4 0 8 -38 8 -85z"/>
<path d="M4120 2765 c0 -40 -2 -45 -23 -45 -18 0 -22 -5 -21 -27 1 -23 5 -27
22 -25 21 3 22 0 22 -106 0 -94 3 -113 20 -135 24 -30 75 -41 118 -26 28 10
31 14 26 37 -9 35 -9 35 -33 20 -16 -10 -26 -10 -39 -2 -14 9 -18 29 -20 112
l-3 100 38 -3 c46 -5 51 -1 45 30 -4 22 -10 25 -43 25 l-39 0 0 45 c0 45 0 45
-35 45 -35 0 -35 0 -35 -45z m41 -2 c0 -10 3 -31 5 -47 3 -17 3 -40 -1 -53 -6
-25 -25 -32 -25 -9 0 8 -10 22 -22 30 -17 12 -19 16 -6 16 19 0 32 26 29 58
-1 12 2 22 8 22 6 0 11 -8 12 -17z m-1 -201 c-4 -2 -4 -21 1 -43 5 -22 7 -44
4 -49 -3 -4 14 -17 38 -29 l42 -21 -35 4 c-19 3 -39 5 -44 5 -5 1 -6 4 -3 7 3
4 0 16 -8 28 -16 21 -21 120 -8 153 6 14 9 11 14 -17 4 -19 4 -36 -1 -38z"/>
<path d="M2274 2715 c-69 -34 -98 -85 -92 -164 5 -70 34 -116 92 -142 97 -44
220 1 255 94 36 94 -19 199 -117 227 -56 15 -83 12 -138 -15z m158 -22 c8 -7
19 -9 23 -5 5 4 5 1 1 -5 -4 -7 -2 -13 4 -13 14 0 51 -62 45 -77 -2 -7 -1 -13
4 -13 13 0 8 -34 -6 -43 -7 -4 -13 -13 -13 -20 0 -7 4 -6 10 3 9 13 10 13 10
0 0 -8 -10 -26 -21 -40 -11 -14 -18 -20 -15 -13 4 6 3 14 -2 17 -5 3 -7 19 -4
35 3 20 8 28 16 24 8 -5 8 -3 0 8 -15 20 -26 51 -14 44 5 -3 8 3 7 14 0 11 -4
18 -8 15 -4 -2 -11 2 -16 10 -12 20 -84 55 -108 51 -34 -5 -65 -17 -65 -24 0
-4 -7 -16 -16 -27 -8 -10 -12 -13 -8 -5 5 9 3 12 -4 7 -9 -5 -9 -13 -2 -26 7
-13 7 -21 -2 -26 -7 -5 -8 -3 -3 6 5 8 4 11 -2 7 -8 -5 -6 -22 4 -54 9 -27 16
-55 16 -64 1 -9 8 -16 17 -15 8 1 14 -5 12 -13 -3 -12 0 -12 12 -2 10 8 16 9
21 1 3 -5 26 -9 50 -8 24 2 42 5 40 7 -2 2 5 13 16 24 13 14 22 18 29 11 16
-16 -25 -57 -58 -59 -15 -1 -33 -5 -40 -9 -7 -4 -12 -2 -12 4 0 7 -7 9 -16 6
-24 -9 -94 34 -112 69 -23 45 -25 102 -5 136 11 18 23 27 32 24 12 -5 12 -3 0
12 -9 11 -10 14 -1 9 7 -4 12 -2 12 4 0 6 4 9 9 6 5 -3 14 0 20 8 14 17 122
16 143 -1z m-31 -43 c24 -13 49 -61 49 -94 0 -13 -12 -38 -26 -55 -41 -49
-112 -41 -142 16 -43 80 42 174 119 133z"/>
<path d="M2378 2693 c6 -2 18 -2 25 0 6 3 1 5 -13 5 -14 0 -19 -2 -12 -5z"/>
<path d="M2431 2666 c2 -2 15 -9 29 -15 24 -11 24 -11 6 3 -16 13 -49 24 -35
12z"/>
<path d="M2756 2730 c-15 -5 -37 -17 -47 -26 -18 -16 -19 -16 -19 4 0 19 -6
22 -45 22 l-45 0 0 -225 0 -225 45 0 45 0 0 82 0 81 24 -22 c55 -52 160 -34
213 36 37 49 43 133 14 190 -33 66 -117 104 -185 83z m-74 -48 l27 -29 -29 2
c-16 1 -27 -2 -24 -7 4 -5 12 -7 20 -4 8 3 14 -1 14 -10 0 -8 -4 -12 -10 -9
-6 4 -7 -1 -3 -11 4 -12 3 -15 -5 -10 -8 5 -11 -2 -8 -24 2 -17 0 -33 -5 -36
-5 -3 -9 -11 -9 -17 0 -7 4 -6 11 3 9 12 10 11 6 -7 -3 -14 0 -21 7 -20 6 1
10 -4 8 -11 -1 -8 2 -11 9 -6 9 5 10 2 6 -9 -4 -12 -1 -15 11 -11 9 3 5 -2 -9
-10 -23 -13 -26 -22 -28 -73 -2 -53 -16 -82 -33 -65 -4 4 -8 90 -9 190 -2 151
0 185 12 193 8 5 14 9 14 9 0 0 12 -13 27 -28z m128 16 c0 -6 7 -5 15 2 10 9
15 9 15 1 0 -6 9 -11 20 -11 11 0 20 -5 20 -11 0 -5 5 -7 11 -3 7 4 6 -2 -2
-17 -11 -22 -11 -23 4 -10 10 7 17 11 17 7 0 -16 2 -22 14 -36 22 -25 14 -100
-15 -142 -14 -21 -29 -35 -32 -31 -4 3 -7 1 -7 -5 0 -7 -11 -12 -25 -12 -14 0
-25 -4 -25 -9 0 -6 -12 -6 -31 -1 -18 5 -35 8 -38 6 -3 -3 -15 2 -26 10 -23
17 -6 19 43 5 20 -6 30 -6 27 0 -4 5 2 9 13 9 18 0 33 13 97 83 23 25 23 28 5
22 -17 -5 -19 -2 -16 24 2 17 0 28 -4 26 -4 -3 -11 6 -14 20 -4 14 -11 25 -17
25 -6 0 -7 4 -4 10 3 5 0 7 -8 4 -8 -3 -21 2 -29 10 -14 14 -34 14 -86 2 -20
-4 -22 -3 -11 10 7 8 18 13 26 10 7 -3 13 -2 13 3 0 5 11 9 25 9 14 0 25 -5
25 -10z m34 -68 c15 -15 21 -33 21 -66 0 -38 -5 -50 -28 -70 -39 -33 -81 -31
-118 5 -41 41 -40 91 1 133 27 26 36 30 67 25 20 -4 46 -16 57 -27z"/>
<path d="M2653 2685 c0 -8 4 -12 9 -9 5 3 6 10 3 15 -9 13 -12 11 -12 -6z"/>
<path d="M2646 2422 c-3 -5 1 -9 9 -9 8 0 12 4 9 9 -3 4 -7 8 -9 8 -2 0 -6 -4
-9 -8z"/>
<path d="M2825 2680 c3 -5 8 -10 11 -10 2 0 4 5 4 10 0 6 -5 10 -11 10 -5 0
-7 -4 -4 -10z"/>
<path d="M3070 2719 c-43 -17 -70 -50 -70 -85 0 -47 27 -72 105 -97 57 -18 71
-26 73 -44 6 -45 -71 -55 -141 -18 -27 14 -28 13 -38 -12 -5 -14 -6 -30 -2
-34 13 -11 101 -39 126 -39 34 1 104 36 116 58 33 62 -3 113 -100 142 -66 20
-70 23 -67 48 3 24 8 27 46 30 24 2 56 -3 73 -12 29 -14 30 -14 39 10 15 38
13 41 -34 53 -54 13 -92 13 -126 0z m-10 -49 c-8 -5 -17 -7 -19 -4 -3 3 1 9 9
14 8 5 17 7 19 4 3 -3 -1 -9 -9 -14z m-25 -29 c-2 -5 5 -17 16 -27 12 -10 25
-26 30 -35 7 -14 5 -16 -11 -12 -11 3 -24 10 -29 17 -13 15 -22 78 -10 70 5
-3 7 -9 4 -13z m145 -85 c0 -3 -4 -8 -10 -11 -5 -3 -10 -1 -10 4 0 6 5 11 10
11 6 0 10 -2 10 -4z m40 -56 c0 -15 -9 -37 -20 -50 -11 -13 -20 -18 -20 -13 0
6 7 16 15 23 8 7 15 25 15 41 0 21 -4 27 -15 23 -15 -6 -21 7 -8 19 12 12 33
-15 33 -43z m-165 -60 c13 -6 15 -9 5 -9 -8 0 -22 4 -30 9 -18 12 -2 12 25 0z
m112 -16 c-3 -3 -12 -4 -19 -1 -8 3 -5 6 6 6 11 1 17 -2 13 -5z"/>
<path d="M3050 2590 c0 -5 5 -10 11 -10 5 0 7 5 4 10 -3 6 -8 10 -11 10 -2 0
-4 -4 -4 -10z"/>
<path d="M3565 2716 c-22 -6 -39 -16 -37 -21 2 -6 5 -20 8 -32 5 -20 7 -21 40
-7 69 29 133 10 149 -43 6 -22 4 -23 -70 -23 -89 0 -127 -16 -145 -60 -21 -51
-4 -91 52 -118 56 -28 109 -22 145 16 l23 25 0 -27 c0 -23 4 -26 34 -26 l34 0
-3 125 c-2 97 -7 131 -20 151 -32 50 -122 67 -210 40z m35 -23 c-8 -3 -22 -11
-30 -17 -13 -10 -13 -9 -1 7 7 9 21 17 30 16 13 0 14 -1 1 -6z m47 1 c-3 -3
-12 -4 -19 -1 -8 3 -5 6 6 6 11 1 17 -2 13 -5z m61 -6 c9 -9 12 -9 12 1 0 8 6
7 18 -5 9 -10 17 -21 17 -25 0 -4 3 -11 8 -15 4 -4 7 -54 7 -112 0 -89 -2
-103 -14 -93 -10 8 -13 27 -11 59 2 26 -2 53 -8 60 -7 9 -7 16 1 24 15 15 16
55 2 63 -6 4 -8 11 -5 16 4 5 -2 9 -12 9 -23 1 -64 30 -42 30 8 0 20 -5 27
-12z m-123 -127 c3 -6 -4 -15 -15 -21 -16 -9 -20 -8 -20 4 0 10 6 13 17 9 11
-4 14 -3 9 5 -4 7 -5 12 -2 12 3 0 7 -4 11 -9z m140 -43 c-9 -46 -39 -68 -91
-68 -33 0 -46 5 -54 19 -14 28 -13 38 10 61 16 16 33 20 81 20 l61 0 -7 -32z
m-182 -18 c-3 -11 -9 -17 -15 -14 -5 3 -5 11 1 18 6 7 7 17 3 21 -4 5 -2 5 5
2 6 -4 9 -16 6 -27z m11 -36 c16 -6 12 -24 -5 -24 -6 0 -8 4 -5 9 4 5 0 12 -6
14 -7 3 -10 6 -6 6 3 1 13 -2 22 -5z m46 -34 c8 -5 11 -10 5 -10 -5 0 -17 5
-25 10 -8 5 -10 10 -5 10 6 0 17 -5 25 -10z"/>
<path d="M3870 2564 l0 -164 38 0 37 0 0 94 c0 111 17 145 78 160 34 9 37 13
37 44 0 34 -1 34 -32 28 -36 -7 -82 -51 -72 -68 5 -7 2 -8 -5 -4 -7 5 -11 22
-9 39 3 31 1 32 -34 33 l-38 1 0 -163z m50 119 c0 -9 7 -24 16 -34 12 -13 12
-19 3 -25 -8 -5 -10 -3 -4 7 5 8 4 11 0 6 -9 -8 -11 -27 -15 -134 -5 -127 -20
-79 -20 62 0 83 4 135 10 135 6 0 10 -8 10 -17z m110 8 c0 -5 -7 -11 -15 -15
-15 -5 -20 5 -8 17 9 10 23 9 23 -2z"/>
<path d="M4401 2717 c-82 -29 -126 -147 -86 -231 19 -39 77 -79 132 -91 38 -8
103 9 134 34 23 18 23 20 6 39 -17 19 -18 19 -57 0 -50 -25 -102 -18 -136 19
-45 48 -36 53 101 53 l125 0 0 37 c0 55 -41 117 -90 137 -47 19 -82 20 -129 3z
m44 -25 c-3 -3 -11 0 -18 7 -9 10 -8 11 6 5 10 -3 15 -9 12 -12z m-75 -47
c-13 -14 -19 -29 -15 -36 5 -7 4 -10 -2 -6 -7 4 -10 -3 -9 -17 0 -13 4 -24 8
-23 10 3 11 -7 3 -32 -6 -19 1 -32 36 -69 24 -26 35 -39 23 -29 -11 9 -24 14
-27 11 -10 -11 -37 17 -37 37 0 11 -4 19 -10 19 -5 0 -10 7 -10 15 0 8 5 15
10 15 6 0 10 4 10 10 0 5 -6 7 -14 4 -11 -4 -14 1 -11 25 2 17 9 41 16 53 7
13 12 24 11 26 -8 11 1 20 15 15 12 -5 14 -3 8 7 -6 9 -4 11 4 5 9 -5 7 -13
-9 -30z m203 11 c3 3 8 -9 12 -26 4 -17 4 -34 1 -37 -3 -4 -6 1 -6 11 0 9 -9
26 -20 38 -11 12 -20 27 -20 32 0 6 7 3 14 -6 7 -10 15 -15 19 -12z m-49 -8
c13 -13 27 -33 31 -45 6 -23 5 -23 -89 -23 -109 0 -119 9 -67 61 37 37 88 39
125 7z m71 -78 c-3 -5 -10 -10 -16 -10 -5 0 -9 5 -9 10 0 6 7 10 16 10 8 0 12
-4 9 -10z m-25 -126 c0 -8 -19 -13 -24 -6 -3 5 1 9 9 9 8 0 15 -2 15 -3z m-46
-13 c3 -5 -6 -11 -19 -14 -14 -2 -28 0 -32 6 -3 5 -1 7 5 3 6 -3 13 -2 17 4 8
12 22 13 29 1z"/>
<path d="M4367 2459 c7 -7 15 -10 18 -7 3 3 -2 9 -12 12 -14 6 -15 5 -6 -5z"/>
<path d="M4680 2564 l0 -164 34 0 34 0 4 101 c3 99 3 101 36 130 18 16 41 29
52 29 16 0 20 7 20 35 0 29 -4 35 -21 35 -12 0 -36 -15 -55 -34 l-34 -34 0 33
c0 31 -2 33 -35 33 l-35 0 0 -164z m53 111 c4 -8 4 -23 2 -35 -2 -11 0 -18 6
-15 5 4 7 11 4 16 -4 5 1 9 10 9 14 0 14 -2 -1 -25 -9 -14 -19 -23 -23 -21 -4
3 -8 -30 -8 -72 -1 -42 -2 -83 -3 -89 0 -7 -3 -13 -7 -13 -7 0 -10 226 -5 253
3 12 20 8 25 -8z m87 11 c0 -3 -4 -8 -10 -11 -5 -3 -10 -1 -10 4 0 6 5 11 10
11 6 0 10 -2 10 -4z"/>
<path d="M2166 2432 c-3 -5 1 -9 9 -9 8 0 12 4 9 9 -3 4 -7 8 -9 8 -2 0 -6 -4
-9 -8z"/>
<path d="M1925 2309 c-4 -6 -5 -12 -2 -15 2 -3 7 2 10 11 7 17 1 20 -8 4z"/>
<path d="M1953 2283 c3 -5 42 -96 87 -203 92 -222 119 -271 160 -302 30 -21
30 -22 11 -42 -33 -37 -51 -84 -51 -133 0 -63 28 -109 83 -133 40 -19 75 -20
878 -20 797 0 837 1 852 18 21 23 22 56 1 76 -14 14 -105 16 -849 16 l-835 0
-15 24 c-20 31 -7 66 36 97 29 20 55 25 258 41 1118 90 1341 109 1372 118 56
16 116 65 149 122 16 29 49 109 71 178 23 69 44 131 47 138 3 10 -9 12 -53 10
l-58 -3 -28 -85 c-72 -216 -104 -256 -214 -267 -53 -6 -57 -5 -52 13 5 16 67
332 67 341 0 2 -19 3 -43 3 l-43 0 -35 -182 -35 -183 -49 -6 c-119 -16 -215
-19 -215 -6 1 16 40 60 73 82 36 23 51 73 38 122 -7 25 -7 39 -1 41 6 2 10 10
10 18 0 9 5 12 11 8 15 -9 0 38 -15 48 -14 10 -47 10 -43 0 1 -4 -6 -16 -16
-27 -10 -11 -29 -35 -43 -52 -22 -28 -32 -33 -69 -33 -37 0 -47 5 -72 36 -23
29 -34 35 -51 30 -18 -6 -22 -15 -22 -53 0 -67 56 -156 116 -182 53 -24 58
-48 12 -55 -32 -5 -138 -14 -138 -12 -2 3 -29 365 -30 384 0 20 -5 22 -46 22
l-46 0 6 -37 c11 -76 28 -364 22 -370 -9 -10 -287 -29 -292 -21 -11 18 9 74
29 83 12 6 30 26 39 45 9 19 27 52 40 73 22 36 25 38 71 36 56 -3 78 16 49 41
-10 8 -26 27 -35 42 -16 25 -16 28 0 37 10 5 14 13 10 17 -5 5 -13 2 -18 -6
-8 -11 -12 -12 -16 -3 -3 10 -12 9 -35 -3 -16 -8 -36 -13 -44 -10 -8 3 -14 -1
-14 -10 0 -11 -12 -15 -52 -15 -41 0 -328 -6 -405 -9 -22 0 -34 -41 -42 -141
-8 -105 -5 -153 10 -143 5 3 9 -14 8 -38 -1 -64 -12 -31 -60 172 -69 292 -56
260 -106 260 -24 0 -43 -2 -43 -4 0 -2 25 -106 56 -231 30 -125 53 -229 50
-232 -3 -3 -24 5 -47 18 -34 19 -50 38 -76 89 -28 55 -126 284 -146 343 -5 14
-18 17 -67 17 -34 0 -59 -3 -57 -7z m84 -27 c-4 -10 -1 -13 8 -10 15 6 30 -30
19 -47 -4 -7 -3 -9 3 -6 10 6 33 -33 33 -57 0 -8 7 -19 15 -26 9 -7 13 -15 11
-17 -3 -3 4 -22 15 -44 12 -21 18 -43 14 -49 -3 -5 -1 -10 6 -10 8 0 8 -4 -1
-15 -11 -13 -10 -14 5 -8 14 5 17 3 12 -10 -3 -9 -2 -17 4 -17 6 0 8 -4 5 -9
-3 -5 1 -12 10 -15 9 -3 14 -13 11 -21 -4 -9 -1 -12 9 -8 10 4 12 0 7 -13 -4
-12 -3 -15 5 -10 7 4 15 0 18 -9 4 -8 18 -23 33 -31 14 -8 18 -13 8 -10 -11 4
-16 2 -11 -5 3 -6 17 -9 30 -6 18 3 22 1 14 -8 -7 -9 -5 -16 7 -26 16 -13 17
-12 4 4 -12 15 -11 17 3 17 9 0 16 4 16 10 0 5 7 7 15 4 11 -5 13 -2 8 12 -5
13 -3 16 10 11 12 -4 14 -2 10 11 -3 11 4 7 21 -10 15 -16 32 -25 41 -22 8 4
15 1 15 -5 0 -6 5 -11 11 -11 5 0 8 4 4 9 -3 6 6 8 20 5 14 -2 25 0 25 6 0 6
5 8 12 4 16 -10 140 -6 208 6 30 6 105 13 165 15 61 3 140 6 176 7 37 2 72 8
78 15 7 7 9 13 6 13 -3 0 -1 9 5 20 7 14 7 20 0 20 -5 0 -9 15 -8 33 1 17 -2
68 -6 112 -13 130 -13 145 -2 146 6 0 5 3 -1 6 -19 7 -16 53 2 53 8 0 16 -6
16 -12 1 -7 3 -26 5 -43 5 -41 16 -209 17 -273 1 -28 6 -52 10 -52 5 0 5 -5 1
-12 -5 -8 -2 -9 10 -5 13 5 17 3 13 -6 -3 -8 1 -14 9 -14 7 0 11 4 8 9 -3 4 5
7 18 7 13 -1 41 3 63 8 22 5 52 8 68 7 19 -2 25 1 21 9 -4 7 3 3 16 -8 13 -11
20 -15 17 -9 -4 8 5 12 26 13 118 3 213 13 236 24 27 13 32 30 46 147 2 25 9
65 15 90 5 25 12 58 15 73 4 18 10 25 18 20 8 -4 7 -1 -2 10 -11 15 -11 17 2
17 22 0 25 -19 10 -69 -7 -24 -13 -55 -13 -68 0 -12 -5 -23 -12 -23 -9 0 -9
-3 -1 -11 7 -7 8 -22 4 -38 -5 -14 -6 -31 -4 -38 2 -6 -1 -14 -6 -18 -15 -9
-14 -58 3 -80 11 -15 22 -17 66 -12 28 4 58 11 66 18 7 6 19 7 25 3 8 -5 9 -3
4 6 -6 10 -4 12 9 7 9 -4 15 -3 12 2 -3 5 6 21 20 37 15 16 23 23 19 15 -6 -9
-4 -12 4 -7 6 4 9 11 6 15 -2 5 2 17 10 27 8 10 15 26 15 35 0 9 7 19 15 23 8
3 15 13 14 23 0 16 -1 16 -9 -2 -5 -11 -9 -16 -9 -11 -1 12 22 79 30 86 3 3
10 21 15 40 8 30 14 35 41 37 l32 1 -16 -36 c-8 -21 -19 -45 -24 -54 -5 -10
-9 -28 -9 -41 0 -13 -3 -27 -7 -31 -5 -4 -8 -11 -8 -14 0 -4 -9 -19 -19 -34
-9 -15 -18 -33 -20 -40 -1 -7 -7 -27 -15 -45 -9 -22 -18 -30 -29 -26 -9 4 -13
2 -9 -4 12 -18 -51 -61 -101 -69 -15 -2 -50 -9 -78 -15 -28 -5 -66 -9 -85 -9
-61 2 -222 -9 -294 -20 -38 -5 -83 -10 -100 -9 -16 0 -70 -4 -120 -9 -51 -5
-100 -6 -113 -1 -15 6 -21 5 -17 -1 4 -6 -8 -10 -27 -11 -74 -3 -183 -12 -283
-24 -16 -2 -88 -6 -160 -10 -71 -4 -143 -9 -160 -11 -16 -2 -56 -6 -88 -10
-35 -4 -72 -16 -92 -30 -18 -12 -36 -19 -40 -16 -4 4 -6 2 -4 -3 4 -17 -13
-65 -21 -60 -4 2 -5 -7 -2 -20 2 -14 9 -25 14 -25 5 0 7 -4 4 -9 -4 -5 0 -11
6 -14 10 -3 10 -8 -2 -23 -14 -17 -13 -18 1 -7 9 7 20 9 24 5 5 -4 5 -1 0 7
-6 10 -4 12 6 5 8 -4 383 -10 834 -11 451 -2 823 -3 826 -3 4 0 9 -7 13 -15 3
-9 0 -15 -10 -15 -9 0 -12 5 -8 13 5 8 2 8 -9 -2 -9 -7 -17 -19 -17 -25 0 -6
4 -5 9 3 6 9 11 10 15 2 4 -6 1 -11 -6 -11 -7 0 -211 0 -453 1 -396 1 -662 1
-1080 -2 -92 0 -141 3 -143 10 -2 6 -9 11 -16 11 -7 0 -21 8 -30 19 -16 17
-16 20 -1 35 9 9 13 16 8 16 -5 0 -14 -5 -21 -12 -9 -9 -12 -8 -13 5 -4 66 0
94 17 111 8 9 12 16 8 16 -4 0 1 7 12 16 10 8 12 12 4 8 -11 -5 -10 -2 3 13
22 26 19 41 -15 72 -16 14 -28 31 -28 38 0 7 -9 17 -19 23 -13 6 -18 18 -16
35 2 18 -2 25 -11 21 -9 -3 -19 14 -31 54 -9 33 -21 60 -25 60 -4 0 -5 7 -2
15 4 8 1 15 -6 15 -6 0 -8 5 -5 10 3 6 2 10 -4 10 -6 0 -7 7 -4 17 5 12 3 14
-7 8 -9 -6 -11 -4 -6 4 5 7 0 21 -9 31 -9 10 -14 24 -9 31 5 8 3 10 -6 4 -10
-6 -12 -3 -8 11 3 11 -1 26 -9 33 -12 11 -12 16 3 32 20 23 28 24 21 5z m264
-11 c1 -5 5 -15 11 -22 9 -11 16 -40 21 -88 1 -11 5 -22 9 -25 4 -3 9 -19 12
-35 3 -17 17 -68 30 -115 l25 -85 -21 -20 -20 -20 6 28 c3 15 2 27 -3 27 -10
0 -31 77 -36 133 -2 21 -8 44 -13 50 -16 21 -22 73 -9 86 9 10 8 11 -7 5 -16
-6 -18 -4 -13 9 4 10 2 17 -4 17 -7 0 -9 12 -7 30 2 16 0 32 -6 35 -6 2 -3 4
7 2 10 -1 18 -6 18 -12z m702 -57 c-7 -9 -4 -18 8 -30 10 -9 19 -12 21 -7 2 5
8 1 14 -8 10 -16 7 -18 -22 -19 -21 0 -31 3 -27 10 3 6 -10 -5 -30 -26 -19
-20 -37 -34 -40 -32 -2 2 -4 -3 -5 -11 -1 -8 -3 -22 -4 -30 -1 -12 -4 -12 -16
-2 -13 10 -14 9 -4 -8 9 -18 5 -26 -24 -55 -28 -27 -37 -31 -44 -20 -6 9 -5
17 3 22 7 4 8 8 2 8 -25 0 -34 -18 -33 -68 1 -28 -1 -54 -3 -57 -3 -2 -57 -9
-119 -15 -91 -8 -117 -7 -128 3 -17 18 -28 87 -13 87 6 0 12 -8 12 -17 1 -17
2 -17 6 0 5 20 23 23 23 5 1 -7 7 2 15 19 14 32 14 32 46 19 27 -11 41 -11 88
1 73 18 85 22 79 29 -11 10 -48 12 -54 2 -4 -6 -10 -5 -15 3 -6 10 -9 11 -9 2
0 -7 -7 -13 -16 -13 -9 0 -12 5 -8 13 4 6 -1 4 -12 -5 -14 -12 -24 -14 -37 -7
-9 6 -22 7 -27 4 -6 -3 -10 -1 -10 6 0 7 -6 5 -13 -6 -9 -12 -19 -15 -28 -10
-8 5 -11 5 -7 0 4 -4 3 -14 -3 -21 -8 -10 -16 -11 -31 -3 -15 8 -19 8 -13 -1
4 -7 -1 -13 -14 -17 -25 -6 -25 -2 -2 -54 22 -48 20 -59 -9 -52 -26 7 -35 44
-22 83 7 17 7 30 2 30 -6 0 -6 9 0 24 5 13 7 26 4 28 -2 3 -5 28 -5 56 -1 28
-5 50 -9 47 -4 -3 -4 10 -1 28 l7 32 164 3 c91 2 197 5 237 6 39 0 69 3 67 6
-3 2 10 10 28 16 43 16 42 16 31 2z m543 -7 c-13 -14 -15 -30 -11 -75 5 -39 3
-56 -5 -56 -6 0 -10 -6 -7 -12 2 -7 -9 -21 -25 -30 -15 -10 -28 -23 -28 -28 0
-6 -5 -8 -12 -4 -8 5 -9 2 -5 -10 4 -9 3 -15 -2 -11 -5 3 -11 2 -14 -2 -2 -5
-2 -2 0 6 3 11 1 11 -11 2 -12 -10 -18 -8 -31 13 -14 21 -21 24 -36 16 -14 -8
-20 -6 -29 10 -6 11 -8 25 -5 30 4 6 -1 7 -11 3 -12 -4 -15 -3 -10 6 5 7 1 18
-10 26 -16 12 -17 16 -5 27 8 8 11 8 7 1 -3 -6 -1 -15 6 -19 7 -4 10 -4 6 1
-4 4 -3 14 2 20 7 9 5 17 -7 26 -14 12 -16 12 -9 0 6 -9 5 -12 -4 -9 -15 5
-22 35 -11 42 9 6 62 -39 55 -47 -3 -3 15 -9 40 -12 37 -6 51 -4 66 10 11 10
20 15 20 10 0 -4 7 -2 15 5 8 7 12 17 8 23 -3 6 -1 7 5 3 7 -4 12 -1 12 8 0 9
8 16 18 17 12 0 13 2 3 6 -11 5 -11 7 0 14 8 5 20 9 28 9 11 0 11 -4 -3 -19z
m-1087 -166 c0 -27 -4 -57 -9 -65 -7 -10 -10 12 -9 70 0 91 17 87 18 -5z m921
-35 c0 -5 -5 -10 -11 -10 -5 0 -7 5 -4 10 3 6 8 10 11 10 2 0 4 -4 4 -10z m60
-71 c0 -5 -4 -9 -10 -9 -5 0 -10 7 -10 16 0 8 5 12 10 9 6 -3 10 -10 10 -16z
m-606 -44 c3 -8 1 -15 -4 -15 -6 0 -10 7 -10 15 0 8 2 15 4 15 2 0 6 -7 10
-15z"/>
<path d="M3181 2144 c0 -11 3 -14 6 -6 3 7 2 16 -1 19 -3 4 -6 -2 -5 -13z"/>
<path d="M4045 1990 c-3 -6 1 -7 9 -4 18 7 21 14 7 14 -6 0 -13 -4 -16 -10z"/>
<path d="M3421 1857 c-8 -10 -7 -14 2 -14 8 0 14 6 14 14 0 7 -1 13 -2 13 -2
0 -8 -6 -14 -13z"/>
<path d="M2213 1835 c0 -8 4 -12 9 -9 5 3 6 10 3 15 -9 13 -12 11 -12 -6z"/>
<path d="M2393 1785 c0 -8 4 -12 9 -9 5 3 6 10 3 15 -9 13 -12 11 -12 -6z"/>
<path d="M2313 1733 c0 -10 4 -10 16 -1 9 7 18 13 20 15 2 1 -5 1 -16 0 -11 0
-20 -7 -20 -14z"/>
<path d="M2288 1516 c-16 -12 -16 -14 6 -24 17 -8 23 -7 23 3 0 8 -7 11 -16 7
-14 -5 -14 -3 -2 11 16 20 12 21 -11 3z"/>
<path d="M3628 1493 c7 -3 16 -2 19 1 4 3 -2 6 -13 5 -11 0 -14 -3 -6 -6z"/>
<path d="M2510 1980 c-9 -6 -10 -10 -3 -10 6 0 15 5 18 10 8 12 4 12 -15 0z"/>
<path d="M3465 2093 c11 -12 18 -14 26 -6 8 8 7 13 -2 18 -8 5 -10 4 -5 -3 9
-15 -6 -16 -22 -2 -7 5 -5 2 3 -7z"/>
<path d="M2386 1395 c-51 -18 -92 -59 -112 -112 -55 -143 95 -288 237 -229 71
29 119 98 119 168 -1 76 -64 157 -138 178 -47 13 -58 12 -106 -5z m34 -25 c-9
-6 -10 -10 -3 -10 6 0 15 5 18 10 6 10 66 7 85 -5 6 -4 9 -13 6 -21 -3 -9 0
-11 11 -7 13 5 15 2 10 -12 -6 -15 -5 -16 7 -6 12 10 17 8 27 -11 18 -31 21
-89 6 -107 -9 -12 -9 -13 1 -7 32 19 3 -46 -39 -86 -28 -27 -40 -32 -66 -29
-7 1 -13 -3 -13 -9 0 -6 -10 -8 -23 -5 -13 4 -30 7 -38 9 -29 6 -64 25 -79 43
-29 34 -51 153 -29 153 5 0 9 5 9 11 0 5 -5 7 -12 3 -6 -4 -3 4 8 18 10 14 22
24 25 22 4 -2 9 5 12 16 3 11 10 20 17 20 6 0 8 -6 5 -12 -3 -7 1 -4 9 7 9 12
26 21 38 22 18 2 20 0 8 -7z"/>
<path d="M2455 1360 c15 -25 15 -42 -1 -36 -8 3 -22 9 -31 12 -15 5 -16 4 -3
-5 13 -9 12 -11 -3 -11 -22 0 -77 -58 -77 -80 0 -9 -6 -22 -12 -29 -11 -10
-10 -11 3 -6 10 4 20 1 25 -6 4 -8 3 -10 -4 -5 -20 12 -13 -8 14 -39 15 -16
23 -23 18 -15 -5 11 -2 10 13 -3 12 -11 31 -16 52 -13 24 3 31 0 27 -10 -3 -7
0 -16 7 -20 7 -4 9 -4 5 1 -4 4 -1 20 7 36 12 23 20 27 45 24 17 -2 28 0 25 5
-3 5 -12 7 -20 3 -8 -3 -15 0 -15 6 0 6 4 11 8 11 5 0 9 12 9 28 0 15 4 36 8
47 5 16 5 17 -4 5 -9 -12 -11 -12 -11 -1 0 8 -8 20 -17 28 -11 9 -12 12 -3 7
9 -4 12 -3 7 2 -5 5 -13 10 -18 10 -5 1 -14 2 -20 3 -5 0 -7 6 -4 11 3 6 1 10
-5 10 -6 0 -9 4 -6 9 3 5 -2 15 -11 22 -15 12 -16 12 -8 -1z m40 -85 c49 -48
19 -125 -50 -125 -69 0 -99 77 -50 125 13 14 36 25 50 25 14 0 37 -11 50 -25z"/>
<path d="M2330 1156 c0 -2 8 -10 18 -17 15 -13 16 -12 3 4 -13 16 -21 21 -21
13z"/>
<path d="M2513 1143 c4 -3 1 -13 -6 -22 -11 -14 -10 -14 5 -2 16 12 16 31 1
31 -4 0 -3 -3 0 -7z"/>
<path d="M2519 1103 c-13 -17 -13 -17 6 -3 11 8 22 16 24 17 2 2 0 3 -6 3 -6
0 -17 -8 -24 -17z"/>
<path d="M3640 1399 c-82 -25 -130 -91 -130 -179 0 -85 49 -149 130 -171 59
-16 107 -6 160 32 48 35 70 80 70 144 0 120 -116 208 -230 174z m110 -32 c0
-5 7 -7 15 -4 8 4 17 1 21 -5 5 -7 2 -8 -7 -4 -8 4 -6 1 5 -8 11 -9 15 -20 10
-28 -6 -9 -3 -9 10 1 9 8 16 10 14 5 -1 -5 3 -19 10 -31 16 -29 22 -103 10
-128 -5 -11 -22 -31 -36 -44 -15 -13 -21 -20 -14 -17 6 4 12 5 12 2 0 -9 -71
-39 -77 -32 -3 3 -12 1 -19 -5 -8 -6 -21 -8 -31 -4 -10 5 -26 7 -37 6 -12 -2
-16 1 -10 10 5 9 2 11 -9 6 -10 -4 -22 1 -30 13 -8 11 -17 17 -22 12 -5 -4 -5
-1 0 7 4 7 4 16 -1 20 -5 3 -15 19 -22 34 -10 23 -10 27 0 21 10 -6 9 -3 0 9
-9 11 -11 27 -7 48 9 40 39 91 48 82 4 -3 7 -1 7 6 0 6 13 17 29 24 34 15 131
18 131 4z"/>
<path d="M3685 1331 c7 -11 0 -13 -36 -8 -30 4 -39 3 -27 -4 15 -8 14 -12 -8
-34 -25 -25 -34 -88 -13 -100 6 -4 8 -14 5 -22 -4 -10 -2 -13 8 -10 8 3 20 -2
28 -11 12 -15 11 -16 -4 -3 -12 9 -18 10 -18 2 0 -12 -2 -12 57 -16 27 -2 47
2 54 11 6 8 16 11 23 7 6 -3 8 -3 4 2 -5 5 1 14 12 22 39 28 15 133 -31 133
-5 0 -7 5 -4 10 3 6 -2 10 -12 10 -11 0 -25 6 -32 13 -11 10 -12 9 -6 -2z m46
-44 c31 -24 42 -56 28 -88 -37 -91 -173 -44 -138 48 18 49 73 69 110 40z"/>
<path d="M3650 1245 c0 -5 5 -17 10 -25 5 -8 10 -10 10 -5 0 6 -5 17 -10 25
-5 8 -10 11 -10 5z"/>
<path d="M3686 1192 c-3 -5 1 -9 9 -9 8 0 12 4 9 9 -3 4 -7 8 -9 8 -2 0 -6 -4
-9 -8z"/>
<path d="M3759 1313 c-13 -16 -12 -17 4 -4 16 13 21 21 13 21 -2 0 -10 -8 -17
-17z"/>
<path d="M3570 1160 c6 -11 13 -20 16 -20 2 0 0 9 -6 20 -6 11 -13 20 -16 20
-2 0 0 -9 6 -20z"/>
<path d="M3687 1099 c7 -7 15 -10 18 -7 3 3 -2 9 -12 12 -14 6 -15 5 -6 -5z"/>
<path d="M2616 1352 c-3 -5 1 -9 9 -9 8 0 12 4 9 9 -3 4 -7 8 -9 8 -2 0 -6 -4
-9 -8z"/>
<path d="M3856 1348 c3 -4 11 -5 19 -1 21 7 19 12 -4 10 -11 0 -18 -5 -15 -9z"/>
<path d="M3477 1331 c-4 -17 -3 -21 5 -13 5 5 8 16 6 23 -3 8 -7 3 -11 -10z"/>
<path d="M2266 1077 c3 -10 9 -15 12 -12 3 3 0 11 -7 18 -10 9 -11 8 -5 -6z"/>
<path d="M2905 1050 c-38 -4 8 -7 125 -7 104 0 172 3 155 7 -36 9 -197 9 -280
0z"/>
<path d="M2818 1043 c7 -3 16 -2 19 1 4 3 -2 6 -13 5 -11 0 -14 -3 -6 -6z"/>
<path d="M5630 310 c-12 -8 -10 -10 9 -8 19 3 24 -2 27 -25 3 -26 1 -28 -22
-23 -17 5 -23 3 -19 -4 3 -5 17 -10 31 -10 21 0 24 5 24 34 0 22 -6 36 -16 40
-19 7 -16 8 -34 -4z"/>
<path d="M5700 306 c0 -8 5 -18 10 -21 6 -3 10 1 10 9 0 8 -4 18 -10 21 -5 3
-10 -1 -10 -9z"/>
<path d="M5700 255 c0 -8 5 -15 10 -15 6 0 10 7 10 15 0 8 -4 15 -10 15 -5 0
-10 -7 -10 -15z"/>
<path d="M5748 183 c7 -3 16 -2 19 1 4 3 -2 6 -13 5 -11 0 -14 -3 -6 -6z"/>
</g>
</svg>
